# Blender v2.78 (sub 0) OBJ File: ''
# www.blender.org
mtllib Arrow_3.mtl
o Arrow_3
v -2.500000 1.000001 -6.500000
v -2.500000 2.000001 -6.500000
v -0.500000 1.000001 -5.500000
v -0.500000 2.000001 -7.500000
v -0.500000 3.000001 -5.500000
v 1.500000 1.000001 -4.500000
v -1.500000 1.000001 -4.500000
v 0.500000 0.000001 -5.500000
v 0.500000 2.000001 -7.500000
v 2.500000 2.000001 -4.500000
v 0.500000 0.999999 7.500000
v -0.500000 1.999999 7.500000
v -0.500000 0.999999 7.500000
v 0.500000 1.999999 7.500000
v -2.500000 1.000001 -4.500000
v -1.500000 2.000001 -4.500000
v 1.500000 2.000001 -4.500000
v -0.500000 2.000001 -5.500000
v 0.500000 1.000001 -5.500000
v 1.500000 2.000001 -5.500000
v -0.500000 0.000001 -6.500000
v 0.500000 1.000001 -6.500000
v 0.500000 3.000001 -6.500000
v 2.500000 1.000001 -6.500000
v -0.500000 1.000001 -7.500000
v 0.500000 1.000001 -7.500000
v -0.500000 0.000001 -5.500000
v 0.500000 0.000001 -6.500000
v -1.500000 1.000001 -5.500000
v 1.500000 1.000001 -5.500000
v 2.500000 1.000001 -4.500000
v -0.500000 1.000001 -6.500000
v -2.500000 2.000001 -4.500000
v -1.500000 2.000001 -5.500000
v 0.500000 2.000001 -5.500000
v -0.500000 2.000001 -6.500000
v 0.500000 2.000001 -6.500000
v 2.500000 2.000001 -6.500000
v 0.500000 3.000001 -5.500000
v -0.500000 3.000001 -6.500000
vt 0.6816 0.5000
vt 0.6816 0.5000
vt 0.6816 0.5000
vt 0.6816 0.5000
vt 0.6816 0.5000
vt 0.6816 0.5000
vt 0.6816 0.5000
vt 0.6816 0.5000
vt 0.6816 0.5000
vt 0.6816 0.5000
vt 0.6816 0.5000
vt 0.6816 0.5000
vt 0.6816 0.5000
vt 0.6816 0.5000
vt 0.6816 0.5000
vt 0.6816 0.5000
vt 0.6816 0.5000
vt 0.6816 0.5000
vt 0.6816 0.5000
vt 0.6816 0.5000
vt 0.6816 0.5000
vt 0.6816 0.5000
vt 0.6816 0.5000
vt 0.6816 0.5000
vt 0.6816 0.5000
vt 0.6816 0.5000
vt 0.6816 0.5000
vt 0.6816 0.5000
vt 0.6816 0.5000
vt 0.6816 0.5000
vt 0.6816 0.5000
vt 0.6816 0.5000
vt 0.6816 0.5000
vt 0.6816 0.5000
vt 0.6816 0.5000
vt 0.6816 0.5000
vt 0.6816 0.5000
vt 0.6816 0.5000
vt 0.6816 0.5000
vt 0.6816 0.5000
vn 1.0000 0.0000 0.0000
vn 0.0000 -0.0000 1.0000
vn 0.0000 1.0000 0.0000
vn -1.0000 0.0000 0.0000
vn 0.0000 0.0000 -1.0000
vn 0.0000 -1.0000 -0.0000
usemtl palette.002
s off
f 24/1/1 38/2/1 10/3/1 31/4/1
f 26/5/1 9/6/1 37/7/1 22/8/1
f 10/3/2 17/9/2 6/10/2 31/4/2
f 14/11/3 35/12/3 18/13/3 12/14/3
f 4/15/4 25/16/4 32/17/4 36/18/4
f 39/19/3 23/20/3 40/21/3 5/22/3
f 18/13/4 3/23/4 13/24/4 12/14/4
f 4/15/5 9/6/5 26/5/5 25/16/5
f 29/25/1 34/26/1 16/27/1 7/28/1
f 39/19/2 5/22/2 18/13/2 35/12/2
f 37/7/3 9/6/3 4/15/3 36/18/3
f 19/29/1 35/12/1 14/11/1 11/30/1
f 19/29/6 11/30/6 13/24/6 3/23/6
f 32/17/5 22/8/5 28/31/5 21/32/5
f 2/33/5 36/18/5 32/17/5 1/34/5
f 2/33/4 1/34/4 15/35/4 33/36/4
f 14/11/2 12/14/2 13/24/2 11/30/2
f 40/21/4 36/18/4 18/13/4 5/22/4
f 32/17/4 21/32/4 27/37/4 3/23/4
f 37/7/1 23/20/1 39/19/1 35/12/1
f 18/13/3 36/18/3 2/33/3 34/26/3
f 20/38/2 35/12/2 19/29/2 30/39/2
f 40/21/5 23/20/5 37/7/5 36/18/5
f 28/31/6 8/40/6 27/37/6 21/32/6
f 37/7/5 38/2/5 24/1/5 22/8/5
f 32/17/6 3/23/6 29/25/6 1/34/6
f 16/27/2 33/36/2 15/35/2 7/28/2
f 1/34/6 29/25/6 7/28/6 15/35/6
f 24/1/6 30/39/6 19/29/6 22/8/6
f 10/3/3 38/2/3 20/38/3 17/9/3
f 18/13/2 34/26/2 29/25/2 3/23/2
f 24/1/6 31/4/6 6/10/6 30/39/6
f 20/38/4 30/39/4 6/10/4 17/9/4
f 20/38/3 38/2/3 37/7/3 35/12/3
f 34/26/3 2/33/3 33/36/3 16/27/3
f 19/29/2 3/23/2 27/37/2 8/40/2
f 26/5/6 22/8/6 32/17/6 25/16/6
f 28/31/1 22/8/1 19/29/1 8/40/1
