# Blender v2.78 (sub 0) OBJ File: ''
# www.blender.org
mtllib Arrow_2.mtl
o Arrow_2
v -1.500000 0.000001 -4.500000
v 0.500000 0.999999 7.500000
v 0.500000 1.000001 -4.500000
v 0.500000 1.999999 7.500000
v 0.500000 2.000001 -4.500000
v 1.500000 3.000001 -7.500000
v -0.500000 0.999999 7.500000
v -0.500000 1.000001 -4.500000
v -1.500000 3.000001 -4.500000
v 1.500000 3.000001 -4.500000
v -1.500000 0.000001 -7.500000
v -1.500000 3.000001 -7.500000
v 1.500000 0.000001 -7.500000
v 1.500000 0.000001 -4.500000
v -0.500000 1.999999 7.500000
v -0.500000 2.000001 -4.500000
vt 0.1387 0.5000
vt 0.1387 0.5000
vt 0.1387 0.5000
vt 0.1387 0.5000
vt 0.1387 0.5000
vt 0.1387 0.5000
vt 0.1387 0.5000
vt 0.1387 0.5000
vt 0.1387 0.5000
vt 0.1387 0.5000
vt 0.1387 0.5000
vt 0.1387 0.5000
vt 0.1387 0.5000
vt 0.1387 0.5000
vt 0.1387 0.5000
vt 0.1387 0.5000
vn 0.0000 0.0000 1.0000
vn 0.0000 1.0000 0.0000
vn 0.0000 -1.0000 -0.0000
vn 1.0000 -0.0000 0.0000
vn 0.0000 0.0000 -1.0000
vn -1.0000 0.0000 0.0000
usemtl palette.001
s off
f 10/1/1 9/2/1 16/3/1 5/4/1
f 4/5/1 15/6/1 7/7/1 2/8/1
f 4/5/2 5/4/2 16/3/2 15/6/2
f 10/1/2 6/9/2 12/10/2 9/2/2
f 3/11/3 2/8/3 7/7/3 8/12/3
f 14/13/1 3/11/1 8/12/1 1/14/1
f 16/3/1 9/2/1 1/14/1 8/12/1
f 13/15/4 6/9/4 10/1/4 14/13/4
f 3/11/4 5/4/4 4/5/4 2/8/4
f 12/10/5 6/9/5 13/15/5 11/16/5
f 16/3/6 8/12/6 7/7/6 15/6/6
f 12/10/6 11/16/6 1/14/6 9/2/6
f 13/15/3 14/13/3 1/14/3 11/16/3
f 10/1/1 5/4/1 3/11/1 14/13/1
