# Blender v2.78 (sub 0) OBJ File: ''
# www.blender.org
mtllib Flower.mtl
o Flower.001
v 0.020000 0.200000 0.000000
v 0.020000 0.200000 -0.040000
v -0.020000 0.200000 -0.040000
v -0.020000 0.200000 0.000000
v -0.020000 0.080000 0.000000
v -0.060000 0.080000 0.000000
v -0.060000 0.040000 0.000000
v -0.020000 0.040000 0.000000
v -0.020000 0.160000 0.000000
v -0.020000 0.120000 0.000000
v -0.020000 0.120000 0.040000
v -0.020000 0.160000 0.040000
v 0.060000 0.120000 0.000000
v 0.060000 0.120000 -0.040000
v 0.020000 0.120000 -0.040000
v 0.020000 0.120000 0.000000
v -0.020000 0.080000 -0.040000
v 0.020000 0.080000 0.000000
v 0.060000 0.080000 0.000000
v 0.020000 0.120000 0.040000
v 0.060000 0.160000 0.000000
v 0.060000 0.200000 0.000000
v 0.060000 0.200000 0.040000
v 0.060000 0.160000 0.040000
v 0.020000 0.160000 0.000000
v -0.020000 0.200000 0.040000
v -0.060000 0.200000 0.040000
v -0.060000 0.160000 0.040000
v -0.060000 0.200000 0.000000
v -0.060000 0.160000 0.000000
v -0.020000 0.240000 0.000000
v 0.020000 0.240000 0.000000
v 0.060000 0.080000 -0.040000
v 0.020000 0.080000 -0.040000
v 0.020000 0.240000 0.040000
v -0.020000 0.240000 0.040000
v 0.020000 0.200000 0.040000
v -0.060000 0.080000 -0.040000
v -0.020000 0.040000 -0.040000
v -0.060000 0.040000 -0.040000
v -0.020000 0.000000 0.000000
v 0.020000 0.000000 0.000000
v -0.020000 0.000000 -0.040000
v 0.020000 0.160000 0.040000
v 0.020000 0.000000 -0.040000
vt 0.7715 0.5000
vt 0.7715 0.5000
vt 0.7715 0.5000
vt 0.7715 0.5000
vt 0.7715 0.5000
vt 0.7715 0.5000
vt 0.7715 0.5000
vt 0.7715 0.5000
vt 0.9629 0.5000
vt 0.9629 0.5000
vt 0.9629 0.5000
vt 0.9629 0.5000
vt 0.7715 0.5000
vt 0.7715 0.5000
vt 0.7715 0.5000
vt 0.7715 0.5000
vt 0.7715 0.5000
vt 0.7715 0.5000
vt 0.7715 0.5000
vt 0.7715 0.5000
vt 0.7715 0.5000
vt 0.9629 0.5000
vt 0.9629 0.5000
vt 0.9629 0.5000
vt 0.9629 0.5000
vt 0.9629 0.5000
vt 0.9629 0.5000
vt 0.7715 0.5000
vt 0.9629 0.5000
vt 0.9629 0.5000
vt 0.9629 0.5000
vt 0.9629 0.5000
vt 0.9629 0.5000
vt 0.9629 0.5000
vt 0.9629 0.5000
vt 0.9629 0.5000
vt 0.9629 0.5000
vt 0.7715 0.5000
vt 0.7715 0.5000
vt 0.9629 0.5000
vt 0.9629 0.5000
vt 0.9629 0.5000
vt 0.7715 0.5000
vt 0.7715 0.5000
vt 0.7715 0.5000
vt 0.7715 0.5000
vt 0.7715 0.5000
vt 0.7715 0.5000
vt 0.9629 0.5000
vt 0.9629 0.5000
vt 0.7715 0.5000
vt 0.0215 0.5000
vt 0.0215 0.5000
vt 0.0215 0.5000
vt 0.0215 0.5000
vn 0.0000 1.0000 0.0000
vn 0.0000 -0.0000 1.0000
vn -1.0000 -0.0000 0.0000
vn 0.0000 -1.0000 -0.0000
vn 1.0000 -0.0000 0.0000
vn 0.0000 0.0000 -1.0000
usemtl palette.008
s 1
f 1/1/1 2/2/1 3/3/1 4/4/1
f 5/5/2 6/6/2 7/7/2 8/8/2
f 9/9/3 10/10/3 11/11/3 12/12/3
f 13/13/1 14/14/1 15/15/1 16/16/1
f 3/3/3 17/17/3 5/5/3 10/18/3 9/19/3 4/4/3
f 13/13/2 16/16/2 18/20/2 19/21/2
f 16/22/4 20/23/4 11/11/4 10/10/4
f 21/24/5 22/25/5 23/26/5 24/27/5
f 15/15/5 2/2/5 1/1/5 25/28/5 16/16/5
f 26/29/2 27/30/2 28/31/2 12/12/2
f 29/32/3 30/33/3 28/31/3 27/30/3
f 31/34/6 32/35/6 1/36/6 4/37/6
f 15/15/6 14/14/6 33/38/6 34/39/6
f 35/40/2 36/41/2 26/29/2 37/42/2
f 38/43/6 17/17/6 39/44/6 40/45/6
f 38/43/3 40/45/3 7/7/3 6/6/3
f 39/44/4 8/8/4 7/7/4 40/45/4
f 1/36/5 32/35/5 35/40/5 37/42/5
f 16/16/2 10/18/2 5/5/2 8/8/2 41/46/2 42/47/2 18/20/2
f 39/44/3 43/48/3 41/46/3 8/8/3
f 23/26/2 37/42/2 44/49/2 24/27/2
f 31/34/3 4/37/3 26/29/3 36/41/3
f 16/22/5 25/50/5 44/49/5 20/23/5
f 34/39/6 45/51/6 43/48/6 39/44/6 17/17/6 3/3/6 2/2/6 15/15/6
f 29/32/6 4/37/6 9/9/6 30/33/6
f 33/38/5 14/14/5 13/13/5 19/21/5
f 23/26/1 22/25/1 1/36/1 37/42/1
f 26/29/1 4/37/1 29/32/1 27/30/1
f 37/52/2 26/53/2 12/54/2 44/55/2
f 5/5/1 17/17/1 38/43/1 6/6/1
f 44/49/2 12/12/2 11/11/2 20/23/2
f 45/51/5 34/39/5 18/20/5 42/47/5
f 1/36/6 22/25/6 21/24/6 25/50/6
f 45/51/4 42/47/4 41/46/4 43/48/4
f 21/24/4 24/27/4 44/49/4 25/50/4
f 9/9/4 12/12/4 28/31/4 30/33/4
f 33/38/4 19/21/4 18/20/4 34/39/4
f 35/40/1 32/35/1 31/34/1 36/41/1
