# Blender v2.78 (sub 0) OBJ File: ''
# www.blender.org
mtllib Flower_3.mtl
o Flower_3.001
v 0.060000 0.160000 -0.020000
v 0.100000 0.160000 -0.020000
v 0.100000 0.120000 -0.020000
v 0.060000 0.120000 -0.020000
v 0.140000 0.120000 0.020000
v 0.140000 0.120000 -0.020000
v 0.100000 0.120000 0.020000
v 0.060000 0.240000 -0.060000
v 0.060000 0.280000 -0.060000
v 0.060000 0.280000 -0.020000
v 0.060000 0.240000 -0.020000
v -0.100000 0.120000 -0.020000
v -0.100000 0.080000 -0.020000
v -0.100000 0.080000 0.020000
v -0.100000 0.120000 0.020000
v -0.020000 0.080000 0.020000
v -0.060000 0.080000 0.020000
v -0.060000 0.040000 0.020000
v -0.020000 0.040000 0.020000
v 0.140000 0.080000 -0.020000
v 0.100000 0.080000 -0.020000
v 0.060000 0.320000 -0.020000
v 0.060000 0.320000 0.020000
v 0.060000 0.280000 0.020000
v -0.020000 0.280000 -0.060000
v 0.020000 0.280000 -0.060000
v 0.020000 0.240000 -0.060000
v -0.020000 0.240000 -0.060000
v 0.060000 0.120000 0.020000
v 0.020000 0.000000 -0.020000
v 0.020000 -0.000000 0.020000
v -0.020000 -0.000000 0.020000
v -0.020000 0.000000 -0.020000
v 0.020000 0.240000 0.060000
v -0.020000 0.240000 0.060000
v -0.020000 0.200000 0.060000
v 0.020000 0.200000 0.060000
v 0.060000 0.200000 0.020000
v 0.060000 0.200000 0.060000
v 0.020000 0.200000 0.020000
v 0.020000 0.320000 0.060000
v 0.020000 0.320000 0.020000
v -0.020000 0.320000 0.020000
v -0.020000 0.320000 0.060000
v -0.020000 0.200000 -0.060000
v -0.020000 0.200000 -0.020000
v -0.060000 0.200000 -0.020000
v -0.060000 0.200000 -0.060000
v -0.020000 0.280000 0.020000
v -0.020000 0.280000 0.060000
v -0.020000 0.320000 -0.060000
v -0.020000 0.280000 -0.020000
v -0.020000 0.320000 -0.020000
v 0.020000 0.080000 -0.020000
v 0.020000 0.080000 0.020000
v 0.020000 0.120000 -0.020000
v 0.020000 0.200000 -0.020000
v 0.020000 0.120000 0.020000
v -0.060000 0.080000 -0.020000
v -0.020000 0.080000 -0.020000
v -0.020000 0.040000 -0.020000
v -0.060000 0.040000 -0.020000
v -0.060000 0.240000 -0.020000
v -0.060000 0.200000 0.020000
v -0.060000 0.240000 0.020000
v 0.020000 0.200000 -0.060000
v -0.060000 0.280000 0.060000
v -0.060000 0.240000 0.060000
v 0.020000 0.280000 0.020000
v 0.020000 0.280000 0.060000
v 0.020000 0.320000 -0.060000
v 0.020000 0.320000 -0.020000
v 0.020000 0.280000 -0.020000
v 0.100000 0.160000 0.020000
v 0.060000 0.160000 0.020000
v -0.060000 0.280000 -0.060000
v -0.060000 0.280000 -0.020000
v -0.060000 0.240000 -0.060000
v -0.140000 0.080000 -0.020000
v -0.140000 0.040000 -0.020000
v -0.140000 0.040000 0.020000
v -0.140000 0.080000 0.020000
v 0.060000 0.240000 0.020000
v 0.060000 0.240000 0.060000
v 0.060000 0.200000 -0.060000
v -0.060000 0.320000 0.020000
v -0.060000 0.280000 0.020000
v 0.100000 0.080000 0.020000
v 0.140000 0.080000 0.020000
v -0.060000 0.120000 0.020000
v -0.060000 0.120000 -0.020000
v -0.060000 0.200000 0.060000
v -0.020000 0.200000 0.020000
v 0.060000 0.080000 -0.020000
v 0.060000 0.080000 0.020000
v -0.100000 0.040000 -0.020000
v -0.100000 0.040000 0.020000
v -0.060000 0.320000 -0.020000
v 0.060000 0.200000 -0.020000
v 0.060000 0.280000 0.060000
vt 0.7949 0.5000
vt 0.7949 0.5000
vt 0.7949 0.5000
vt 0.7949 0.5000
vt 0.7949 0.5000
vt 0.7949 0.5000
vt 0.7949 0.5000
vt 0.0645 0.5000
vt 0.0645 0.5000
vt 0.0645 0.5000
vt 0.0645 0.5000
vt 0.7949 0.5000
vt 0.7949 0.5000
vt 0.7949 0.5000
vt 0.7949 0.5000
vt 0.7949 0.5000
vt 0.7949 0.5000
vt 0.7949 0.5000
vt 0.7949 0.5000
vt 0.7949 0.5000
vt 0.7949 0.5000
vt 0.0645 0.5000
vt 0.0645 0.5000
vt 0.0645 0.5000
vt 0.0449 0.5000
vt 0.0449 0.5000
vt 0.0449 0.5000
vt 0.0449 0.5000
vt 0.7949 0.5000
vt 0.7715 0.5000
vt 0.7715 0.5000
vt 0.7715 0.5000
vt 0.7715 0.5000
vt 0.0645 0.5000
vt 0.0645 0.5000
vt 0.0645 0.5000
vt 0.0645 0.5000
vt 0.0449 0.5000
vt 0.0449 0.5000
vt 0.0449 0.5000
vt 0.0449 0.5000
vt 0.0645 0.5000
vt 0.0645 0.5000
vt 0.0645 0.5000
vt 0.0645 0.5000
vt 0.0449 0.5000
vt 0.0449 0.5000
vt 0.0449 0.5000
vt 0.0449 0.5000
vt 0.0645 0.5000
vt 0.0645 0.5000
vt 0.0645 0.5000
vt 0.0645 0.5000
vt 0.0645 0.5000
vt 0.0645 0.5000
vt 0.7715 0.5000
vt 0.7715 0.5000
vt 0.7715 0.5000
vt 0.7715 0.5000
vt 0.7715 0.5000
vt 0.7715 0.5000
vt 0.7949 0.5000
vt 0.7949 0.5000
vt 0.7949 0.5000
vt 0.7949 0.5000
vt 0.0645 0.5000
vt 0.0645 0.5000
vt 0.0645 0.5000
vt 0.0645 0.5000
vt 0.0645 0.5000
vt 0.0645 0.5000
vt 0.0645 0.5000
vt 0.0645 0.5000
vt 0.0645 0.5000
vt 0.0645 0.5000
vt 0.0645 0.5000
vt 0.0645 0.5000
vt 0.0645 0.5000
vt 0.0645 0.5000
vt 0.0645 0.5000
vt 0.0645 0.5000
vt 0.7949 0.5000
vt 0.7949 0.5000
vt 0.0645 0.5000
vt 0.0645 0.5000
vt 0.0645 0.5000
vt 0.0645 0.5000
vt 0.7949 0.5000
vt 0.7949 0.5000
vt 0.7949 0.5000
vt 0.7949 0.5000
vt 0.0449 0.5000
vt 0.0449 0.5000
vt 0.0449 0.5000
vt 0.0449 0.5000
vt 0.0449 0.5000
vt 0.0645 0.5000
vt 0.0645 0.5000
vt 0.7949 0.5000
vt 0.7949 0.5000
vt 0.7949 0.5000
vt 0.7949 0.5000
vt 0.0645 0.5000
vt 0.0449 0.5000
vt 0.0449 0.5000
vt 0.0449 0.5000
vt 0.0449 0.5000
vt 0.0449 0.5000
vt 0.0449 0.5000
vt 0.0449 0.5000
vt 0.0449 0.5000
vt 0.0449 0.5000
vt 0.0449 0.5000
vt 0.0449 0.5000
vt 0.7715 0.5000
vt 0.7715 0.5000
vt 0.7715 0.5000
vt 0.7715 0.5000
vt 0.7715 0.5000
vt 0.7715 0.5000
vt 0.0449 0.5000
vt 0.0449 0.5000
vt 0.7949 0.5000
vt 0.7949 0.5000
vt 0.7949 0.5000
vt 0.7949 0.5000
vt 0.7949 0.5000
vt 0.7949 0.5000
vt 0.0645 0.5000
vt 0.0449 0.5000
vt 0.0449 0.5000
vt 0.0449 0.5000
vt 0.0449 0.5000
vt 0.0449 0.5000
vt 0.0449 0.5000
vt 0.7949 0.5000
vt 0.0645 0.5000
vt 0.0645 0.5000
vt 0.0449 0.5000
vt 0.0449 0.5000
vt 0.7949 0.5000
vt 0.0449 0.5000
vt 0.0449 0.5000
vt 0.0645 0.5000
vt 0.0645 0.5000
vt 0.0645 0.5000
vt 0.0645 0.5000
vt 0.0645 0.5000
vn 0.0000 0.0000 -1.0000
vn 0.0000 1.0000 0.0000
vn 1.0000 0.0000 0.0000
vn -1.0000 0.0000 0.0000
vn -0.0000 -0.0000 1.0000
vn 0.0000 -1.0000 0.0000
usemtl palette.006
s 1
f 1/1/1 2/2/1 3/3/1 4/4/1
f 5/5/2 6/6/2 3/3/2 7/7/2
f 8/8/3 9/9/3 10/10/3 11/11/3
f 12/12/4 13/13/4 14/14/4 15/15/4
f 16/16/5 17/17/5 18/18/5 19/19/5
f 3/3/1 6/6/1 20/20/1 21/21/1
f 10/10/3 22/22/3 23/23/3 24/24/3
f 25/25/1 26/26/1 27/27/1 28/28/1
f 3/3/6 7/7/6 29/29/6 4/4/6
f 30/30/6 31/31/6 32/32/6 33/33/6
f 34/34/5 35/35/5 36/36/5 37/37/5
f 38/38/6 39/39/6 37/40/6 40/41/6
f 41/42/2 42/43/2 43/44/2 44/45/2
f 45/46/6 46/47/6 47/48/6 48/49/6
f 43/44/4 49/50/4 50/51/4 44/45/4
f 51/52/4 25/53/4 52/54/4 53/55/4
f 30/30/3 54/56/3 55/57/3 31/31/3
f 56/58/3 57/59/3 40/60/3 58/61/3
f 59/62/1 60/63/1 61/64/1 62/65/1
f 63/66/4 47/67/4 64/68/4 65/69/4
f 66/70/6 57/71/6 46/72/6 45/73/6
f 50/51/5 67/74/5 68/75/5 35/35/5
f 69/76/3 42/43/3 41/42/3 70/77/3
f 26/78/3 71/79/3 72/80/3 73/81/3
f 51/52/1 71/79/1 26/78/1 25/53/1
f 74/82/2 2/2/2 1/1/2 75/83/2
f 52/54/2 25/53/2 76/84/2 77/85/2
f 76/84/1 25/53/1 28/86/1 78/87/1
f 79/88/4 80/89/4 81/90/4 82/91/4
f 38/38/3 83/92/3 84/93/3 39/39/3
f 27/27/1 8/94/1 85/95/1 66/96/1
f 74/82/5 75/83/5 29/29/5 7/7/5
f 43/44/5 86/97/5 87/98/5 49/50/5
f 5/5/5 7/7/5 88/99/5 89/100/5
f 90/101/2 91/102/2 12/12/2 15/15/2
f 28/86/1 27/103/1 66/70/1 45/73/1
f 35/104/5 68/105/5 92/106/5 36/107/5
f 70/108/5 50/109/5 35/104/5 34/110/5
f 23/23/5 42/43/5 69/76/5 24/24/5
f 3/3/4 21/21/4 88/99/4 7/7/4
f 42/111/2 72/112/2 53/113/2 43/114/2
f 26/78/1 9/9/1 8/8/1 27/103/1
f 72/80/2 71/79/2 51/52/2 53/55/2
f 40/60/5 93/115/5 16/116/5 19/117/5 32/32/5 31/31/5 55/57/5 58/61/5
f 54/56/1 30/30/1 33/33/1 61/118/1 60/119/1 46/120/1 57/59/1 56/58/1
f 1/1/4 4/4/4 29/29/4 75/83/4
f 93/121/6 36/107/6 92/106/6 64/122/6
f 94/123/6 95/124/6 55/125/6 54/126/6
f 96/127/3 13/13/3 14/14/3 97/128/3
f 90/101/5 15/15/5 14/14/5 17/17/5
f 43/44/2 53/55/2 98/129/2 86/97/2
f 11/130/3 10/131/3 24/132/3 83/92/3
f 85/95/6 99/133/6 57/134/6 66/96/6
f 78/135/1 28/28/1 45/46/1 48/49/1
f 84/93/5 34/110/5 37/40/5 39/39/5
f 85/95/3 8/94/3 11/130/3 99/133/3
f 56/136/1 4/4/1 94/123/1 54/126/1
f 79/88/1 13/13/1 96/127/1 80/89/1
f 98/129/1 53/55/1 52/54/1 77/85/1
f 41/42/5 44/45/5 50/51/5 70/77/5
f 61/118/4 33/33/4 32/32/4 19/117/4
f 20/20/3 6/6/3 5/5/3 89/100/3
f 100/137/5 70/77/5 34/34/5 84/138/5
f 72/80/1 22/22/1 10/10/1 73/81/1
f 78/135/4 48/49/4 47/48/4 63/139/4
f 98/129/4 77/85/4 87/98/4 86/97/4
f 96/127/6 97/128/6 81/90/6 80/89/6
f 76/84/4 78/87/4 63/66/4 77/85/4
f 59/62/6 17/17/6 14/14/6 13/13/6
f 61/64/6 19/19/6 18/18/6 62/65/6
f 20/20/6 89/100/6 88/99/6 21/21/6
f 65/140/4 64/122/4 92/106/4 68/105/4
f 29/29/2 4/4/2 56/136/2 58/141/2
f 3/3/3 2/2/3 74/82/3 7/7/3
f 23/23/2 22/22/2 72/80/2 42/43/2
f 10/10/2 9/9/2 26/78/2 73/81/2
f 12/12/1 91/102/1 59/62/1 13/13/1
f 77/142/4 63/139/4 65/140/4 87/143/4
f 46/72/6 93/144/6 64/68/6 47/67/6
f 99/145/3 11/11/3 83/146/3 38/147/3
f 14/14/2 13/13/2 79/88/2 82/91/2
f 16/16/2 60/63/2 59/62/2 17/17/2
f 50/51/2 49/50/2 87/98/2 67/74/2
f 94/123/3 4/4/3 29/29/3 95/124/3
f 87/98/4 65/69/4 68/75/4 67/74/4
f 59/62/4 62/65/4 18/18/4 17/17/4
f 40/148/6 37/37/6 36/36/6 93/144/6
f 100/137/2 24/24/2 69/76/2 70/77/2
f 83/146/3 24/24/3 100/137/3 84/138/3
f 59/62/3 91/102/3 90/101/3 17/17/3
f 29/29/5 58/141/5 55/125/5 95/124/5
f 46/120/4 60/119/4 16/116/4 93/115/4
f 99/145/6 38/147/6 40/148/6 57/71/6
f 14/14/5 82/91/5 81/90/5 97/128/5
