# Blender v2.78 (sub 0) OBJ File: ''
# www.blender.org
mtllib Flower_2.mtl
o Flower_2.001
v 0.020000 0.120000 -0.020000
v 0.020000 0.120000 -0.060000
v -0.020000 0.120000 -0.060000
v -0.020000 0.120000 -0.020000
v -0.060000 0.160000 -0.060000
v -0.060000 0.160000 0.060000
v -0.060000 0.200000 0.060000
v -0.060000 0.200000 0.020000
v -0.060000 0.200000 -0.020000
v -0.060000 0.200000 -0.060000
v -0.020000 0.240000 0.020000
v -0.060000 0.240000 0.020000
v -0.020000 0.200000 0.020000
v 0.020000 0.200000 0.020000
v 0.020000 0.200000 -0.020000
v -0.020000 0.200000 -0.020000
v 0.020000 0.040000 0.020000
v 0.020000 0.040000 0.060000
v -0.020000 0.040000 0.060000
v -0.020000 0.040000 0.020000
v -0.020000 0.080000 -0.020000
v -0.020000 0.080000 0.020000
v -0.020000 0.160000 0.020000
v -0.020000 0.160000 -0.020000
v 0.020000 0.240000 -0.020000
v 0.020000 0.240000 0.020000
v 0.020000 0.080000 0.060000
v -0.020000 0.080000 0.060000
v 0.060000 0.080000 -0.020000
v 0.060000 0.080000 0.020000
v 0.020000 0.080000 0.020000
v 0.020000 0.080000 -0.020000
v 0.060000 0.240000 0.020000
v 0.060000 0.200000 0.020000
v 0.060000 0.120000 0.020000
v 0.060000 0.120000 -0.020000
v 0.020000 0.120000 0.020000
v 0.020000 -0.000000 0.020000
v 0.020000 0.000000 -0.020000
v -0.020000 0.040000 -0.020000
v -0.060000 0.040000 0.020000
v -0.060000 0.040000 -0.020000
v 0.020000 0.160000 -0.020000
v 0.020000 0.080000 -0.060000
v -0.020000 0.080000 -0.060000
v -0.020000 0.240000 -0.060000
v 0.020000 0.240000 -0.060000
v 0.020000 0.200000 -0.060000
v -0.020000 0.200000 -0.060000
v -0.020000 0.000000 -0.020000
v -0.020000 -0.000000 0.020000
v 0.060000 0.200000 0.060000
v 0.060000 0.160000 0.060000
v 0.060000 0.160000 -0.060000
v 0.060000 0.200000 -0.060000
v 0.060000 0.200000 -0.020000
v 0.020000 0.200000 0.060000
v -0.020000 0.200000 0.060000
v -0.020000 0.240000 -0.020000
v 0.020000 0.160000 0.020000
v 0.020000 0.240000 0.060000
v -0.020000 0.240000 0.060000
v -0.060000 0.080000 0.020000
v -0.060000 0.240000 -0.020000
v 0.060000 0.240000 -0.020000
v -0.060000 0.080000 -0.020000
vt 0.7949 0.5000
vt 0.7949 0.5000
vt 0.7949 0.5000
vt 0.7949 0.5000
vt 0.8535 0.5000
vt 0.8535 0.5000
vt 0.8535 0.5000
vt 0.8535 0.5000
vt 0.8535 0.5000
vt 0.8535 0.5000
vt 0.8535 0.5000
vt 0.8535 0.5000
vt 0.8535 0.5000
vt 0.8535 0.5000
vt 0.8535 0.5000
vt 0.8535 0.5000
vt 0.7949 0.5000
vt 0.7949 0.5000
vt 0.7949 0.5000
vt 0.7949 0.5000
vt 0.7715 0.5000
vt 0.7715 0.5000
vt 0.7715 0.5000
vt 0.7715 0.5000
vt 0.7715 0.5000
vt 0.8535 0.5000
vt 0.8535 0.5000
vt 0.7949 0.5000
vt 0.7949 0.5000
vt 0.7949 0.5000
vt 0.7949 0.5000
vt 0.7949 0.5000
vt 0.7949 0.5000
vt 0.8535 0.5000
vt 0.8535 0.5000
vt 0.7949 0.5000
vt 0.7949 0.5000
vt 0.7949 0.5000
vt 0.7715 0.5000
vt 0.7715 0.5000
vt 0.7715 0.5000
vt 0.7715 0.5000
vt 0.7715 0.5000
vt 0.7949 0.5000
vt 0.7949 0.5000
vt 0.7949 0.5000
vt 0.7715 0.5000
vt 0.7715 0.5000
vt 0.7949 0.5000
vt 0.7949 0.5000
vt 0.7949 0.5000
vt 0.8535 0.5000
vt 0.8535 0.5000
vt 0.8535 0.5000
vt 0.8535 0.5000
vt 0.7715 0.5000
vt 0.7715 0.5000
vt 0.7715 0.5000
vt 0.7715 0.5000
vt 0.8535 0.5000
vt 0.8535 0.5000
vt 0.8535 0.5000
vt 0.8535 0.5000
vt 0.8535 0.5000
vt 0.8535 0.5000
vt 0.8535 0.5000
vt 0.7949 0.5000
vt 0.8535 0.5000
vt 0.8535 0.5000
vt 0.8535 0.5000
vt 0.7715 0.5000
vt 0.7715 0.5000
vt 0.8535 0.5000
vt 0.8535 0.5000
vt 0.7949 0.5000
vt 0.8535 0.5000
vt 0.8535 0.5000
vt 0.7949 0.5000
vt 0.8535 0.5000
vt 0.8535 0.5000
vn 0.0000 1.0000 0.0000
vn -1.0000 0.0000 0.0000
vn 0.0000 -0.0000 1.0000
vn 0.0000 -1.0000 -0.0000
vn 1.0000 -0.0000 0.0000
vn 0.0000 0.0000 -1.0000
usemtl palette.007
s 1
f 1/1/1 2/2/1 3/3/1 4/4/1
f 5/5/2 6/6/2 7/7/2 8/8/2 9/9/2 10/10/2
f 11/11/3 12/12/3 8/8/3 13/13/3
f 14/14/1 15/15/1 16/16/1 13/13/1
f 17/17/4 18/18/4 19/19/4 20/20/4
f 4/21/2 21/22/2 22/23/2 23/24/2 24/25/2
f 25/26/2 15/15/2 14/14/2 26/27/2
f 27/28/3 28/29/3 19/19/3 18/18/3
f 29/30/4 30/31/4 31/32/4 32/33/4
f 33/34/3 26/27/3 14/14/3 34/35/3
f 35/36/1 36/37/1 1/1/1 37/38/1
f 31/39/5 17/40/5 38/41/5 39/42/5 32/43/5
f 40/44/4 20/20/4 41/45/4 42/46/4
f 24/25/6 43/47/6 1/48/6 4/21/6
f 44/49/4 32/33/4 21/50/4 45/51/4
f 46/52/6 47/53/6 48/54/6 49/55/6
f 40/56/2 50/57/2 51/58/2 20/59/2
f 34/35/5 52/60/5 53/61/5 54/62/5 55/63/5 56/64/5
f 5/5/4 24/65/4 23/66/4 6/6/4
f 22/67/2 20/20/2 19/19/2 28/29/2
f 57/68/3 58/69/3 7/7/3 6/6/3 53/61/3 52/60/3
f 46/52/2 49/55/2 16/16/2 59/70/2
f 16/16/5 59/70/5 11/11/5 13/13/5
f 1/1/6 36/37/6 29/30/6 32/33/6
f 58/69/1 13/13/1 8/8/1 7/7/1
f 1/48/5 43/47/5 60/71/5 37/72/5
f 23/24/3 22/23/3 31/39/3 37/72/3 60/71/3
f 52/60/1 34/35/1 14/14/1 57/68/1
f 25/26/1 47/53/1 46/52/1 59/70/1
f 17/17/5 31/32/5 27/28/5 18/18/5
f 61/73/1 26/27/1 11/11/1 62/74/1
f 27/28/1 31/32/1 22/67/1 28/29/1
f 14/14/5 26/27/5 61/73/5 57/68/5
f 21/22/6 32/43/6 39/42/6 50/57/6 40/56/6
f 22/67/3 63/75/3 41/45/3 20/20/3
f 64/76/2 9/9/2 8/8/2 12/12/2
f 11/11/2 13/13/2 58/69/2 62/74/2
f 11/11/6 26/27/6 14/14/6 13/13/6
f 29/30/5 36/37/5 35/36/5 30/31/5
f 48/54/6 55/63/6 54/62/6 5/5/6 10/10/6 49/55/6
f 25/26/6 65/77/6 56/64/6 15/15/6
f 66/78/6 21/50/6 40/44/6 42/46/6
f 22/67/1 21/50/1 66/78/1 63/75/1
f 16/16/1 49/55/1 10/10/1 9/9/1
f 48/54/5 47/53/5 25/26/5 15/15/5
f 54/62/4 53/61/4 60/79/4 43/80/4
f 60/79/4 53/61/4 6/6/4 23/66/4
f 54/62/4 43/80/4 24/65/4 5/5/4
f 3/3/6 2/2/6 44/49/6 45/51/6
f 61/73/3 62/74/3 58/69/3 57/68/3
f 39/42/4 38/41/4 51/58/4 50/57/4
f 44/49/5 2/2/5 1/1/5 32/33/5
f 3/3/2 45/51/2 21/50/2 4/4/2
f 66/78/2 42/46/2 41/45/2 63/75/2
f 35/36/3 37/38/3 31/32/3 30/31/3
f 56/64/5 65/77/5 33/34/5 34/35/5
f 17/40/3 20/59/3 51/58/3 38/41/3
f 11/11/1 59/70/1 64/76/1 12/12/1
f 64/76/6 59/70/6 16/16/6 9/9/6
f 25/26/3 59/70/3 16/16/3 15/15/3
f 33/34/1 65/77/1 25/26/1 26/27/1
f 56/64/1 55/63/1 48/54/1 15/15/1
