# Blender v2.78 (sub 0) OBJ File: ''
# www.blender.org
mtllib Flower_5.mtl
o Flower_5
v -0.100000 0.120000 0.000000
v -0.100000 0.080000 -0.040000
v -0.060000 0.040000 -0.040000
v -0.060000 0.080000 -0.040000
v -0.020000 0.080000 0.000000
v -0.020000 0.120000 0.040000
v -0.020000 0.160000 0.000000
v -0.020000 0.200000 0.040000
v -0.020000 0.240000 0.000000
v 0.060000 0.160000 0.000000
v 0.060000 0.120000 -0.040000
v 0.020000 0.000000 0.000000
v 0.020000 0.080000 -0.040000
v 0.020000 0.120000 0.000000
v 0.020000 0.120000 -0.040000
v 0.020000 0.200000 0.000000
v 0.020000 0.200000 0.040000
v 0.020000 0.240000 0.040000
v 0.060000 0.200000 0.040000
v 0.060000 0.200000 0.000000
v 0.100000 0.120000 0.000000
v 0.100000 0.120000 -0.040000
v -0.060000 0.200000 0.040000
v -0.020000 0.040000 0.000000
v -0.020000 0.120000 0.000000
v -0.020000 0.200000 0.000000
v 0.020000 0.160000 0.000000
v -0.060000 0.120000 -0.040000
v 0.020000 0.200000 -0.040000
v 0.100000 0.160000 -0.040000
v -0.020000 0.000000 -0.040000
v -0.020000 0.000000 0.000000
v 0.020000 0.000000 -0.040000
v -0.060000 0.040000 0.000000
v -0.020000 0.040000 -0.040000
v -0.100000 0.080000 0.000000
v 0.060000 0.080000 0.000000
v 0.020000 0.080000 0.000000
v 0.060000 0.080000 -0.040000
v 0.020000 0.120000 0.040000
v 0.060000 0.120000 0.000000
v -0.060000 0.160000 0.000000
v -0.020000 0.160000 0.040000
v -0.060000 0.160000 0.040000
v 0.060000 0.160000 0.040000
v 0.020000 0.160000 0.040000
v -0.060000 0.080000 0.000000
v -0.020000 0.080000 -0.040000
v -0.060000 0.120000 0.000000
v -0.100000 0.120000 -0.040000
v 0.100000 0.160000 0.000000
v 0.060000 0.160000 -0.040000
v -0.060000 0.200000 0.000000
v -0.020000 0.200000 -0.040000
v -0.020000 0.240000 0.040000
v 0.020000 0.240000 0.000000
vt 0.8418 0.5000
vt 0.8418 0.5000
vt 0.8418 0.5000
vt 0.8418 0.5000
vt 0.7949 0.5000
vt 0.7949 0.5000
vt 0.7949 0.5000
vt 0.7949 0.5000
vt 0.7715 0.5000
vt 0.7715 0.5000
vt 0.7715 0.5000
vt 0.7715 0.5000
vt 0.7715 0.5000
vt 0.7715 0.5000
vt 0.7715 0.5000
vt 0.7715 0.5000
vt 0.8418 0.5000
vt 0.8418 0.5000
vt 0.8418 0.5000
vt 0.8418 0.5000
vt 0.7715 0.5000
vt 0.7715 0.5000
vt 0.7715 0.5000
vt 0.7715 0.5000
vt 0.7715 0.5000
vt 0.7715 0.5000
vt 0.7949 0.5000
vt 0.7949 0.5000
vt 0.7949 0.5000
vt 0.7949 0.5000
vt 0.7949 0.5000
vt 0.7949 0.5000
vt 0.7949 0.5000
vt 0.7949 0.5000
vt 0.7949 0.5000
vt 0.7949 0.5000
vt 0.7949 0.5000
vt 0.7949 0.5000
vt 0.8418 0.5000
vt 0.8418 0.5000
vt 0.8418 0.5000
vt 0.8418 0.5000
vt 0.7715 0.5000
vt 0.7715 0.5000
vt 0.7715 0.5000
vt 0.7715 0.5000
vt 0.7715 0.5000
vt 0.8418 0.5000
vt 0.8418 0.5000
vt 0.7949 0.5000
vt 0.7949 0.5000
vt 0.7949 0.5000
vt 0.7949 0.5000
vt 0.7949 0.5000
vt 0.7949 0.5000
vt 0.7949 0.5000
vt 0.8418 0.5000
vt 0.8418 0.5000
vt 0.7949 0.5000
vt 0.7949 0.5000
vt 0.8418 0.5000
vt 0.8418 0.5000
vt 0.8418 0.5000
vt 0.8418 0.5000
vt 0.8418 0.5000
vt 0.7949 0.5000
vt 0.8418 0.5000
vt 0.8418 0.5000
vt 0.1504 0.5000
vt 0.1504 0.5000
vt 0.1504 0.5000
vt 0.1504 0.5000
vt 0.7949 0.5000
vt 0.8418 0.5000
vt 0.7949 0.5000
vn 0.0000 -1.0000 0.0000
vn 0.0000 -0.0000 1.0000
vn -1.0000 -0.0000 0.0000
vn 1.0000 0.0000 0.0000
vn 0.0000 0.0000 -1.0000
vn 0.0000 1.0000 0.0000
usemtl palette.004
s off
f 7/1/1 43/2/1 44/3/1 42/4/1
f 51/5/2 10/6/2 41/7/2 21/8/2
f 35/9/3 31/10/3 32/11/3 24/12/3
f 33/13/4 13/14/4 38/15/4 12/16/4
f 9/17/5 56/18/5 16/19/5 26/20/5
f 25/21/3 7/22/3 26/23/3 54/24/3 48/25/3 5/26/3
f 4/27/5 48/28/5 35/29/5 3/30/5
f 50/31/3 2/32/3 36/33/3 1/34/3
f 52/35/3 11/36/3 41/7/3 10/6/3
f 4/27/3 3/30/3 34/37/3 47/38/3
f 18/39/2 55/40/2 8/41/2 17/42/2
f 15/43/4 29/44/4 16/45/4 27/46/4 14/47/4
f 19/48/6 20/49/6 16/19/6 17/42/6
f 41/7/6 11/36/6 15/50/6 14/51/6
f 39/52/4 11/36/4 41/7/4 37/53/4
f 41/7/2 14/51/2 38/54/2 37/53/2
f 39/52/1 37/53/1 38/54/1 13/55/1
f 50/31/5 28/56/5 4/27/5 2/32/5
f 8/41/6 26/20/6 53/57/6 23/58/6
f 5/59/6 48/28/6 4/27/6 47/38/6
f 16/19/4 56/18/4 18/39/4 17/42/4
f 51/5/6 30/60/6 52/35/6 10/6/6
f 14/61/1 40/62/1 6/63/1 25/64/1
f 5/26/2 24/12/2 32/11/2 12/16/2 38/15/2 14/47/2 25/21/2
f 46/65/2 43/2/2 6/63/2 40/62/2
f 15/50/5 11/36/5 39/52/5 13/55/5
f 4/27/4 28/56/4 49/66/4 47/38/4
f 4/27/1 47/38/1 36/33/1 2/32/1
f 16/45/6 29/44/6 54/24/6 26/23/6
f 54/24/5 29/44/5 15/43/5 13/14/5 33/13/5 31/10/5 35/9/5 48/25/5
f 10/67/4 20/49/4 19/48/4 45/68/4
f 53/57/5 26/20/5 7/1/5 42/4/5
f 17/69/2 8/70/2 43/71/2 46/72/2
f 18/39/6 56/18/6 9/17/6 55/40/6
f 19/48/2 17/42/2 46/65/2 45/68/2
f 35/29/1 24/73/1 34/37/1 3/30/1
f 16/19/5 20/49/5 10/67/5 27/74/5
f 7/1/3 25/64/3 6/63/3 43/2/3
f 5/59/2 47/38/2 34/37/2 24/73/2
f 10/67/1 45/68/1 46/65/1 27/74/1
f 33/13/1 12/16/1 32/11/1 31/10/1
f 53/57/3 42/4/3 44/3/3 23/58/3
f 14/61/4 27/74/4 46/65/4 40/62/4
f 49/66/2 1/34/2 36/33/2 47/38/2
f 22/75/4 30/60/4 51/5/4 21/8/4
f 9/17/3 26/20/3 8/41/3 55/40/3
f 8/41/2 23/58/2 44/3/2 43/2/2
f 52/35/5 30/60/5 22/75/5 11/36/5
f 22/75/1 21/8/1 41/7/1 11/36/1
f 49/66/6 28/56/6 50/31/6 1/34/6
