# Blender v2.78 (sub 0) OBJ File: ''
# www.blender.org
mtllib Bone.mtl
o Bone
v -12.000000 75.000000 -0.999988
v -12.000000 78.000000 -0.999987
v -12.000000 83.000000 1.000013
v -11.000000 76.000000 2.000012
v -11.000000 76.000000 -1.999988
v -11.000000 76.000000 -0.999988
v -11.000000 78.000000 -1.999987
v -10.000000 80.000000 2.000013
v -10.000000 78.000000 1.000013
v -10.000000 80.000000 1.000013
v -10.000000 80.000000 -0.999987
v 8.000000 76.000000 1.000012
v 8.000000 77.000000 -0.999987
v 8.000000 81.000000 -0.999987
v 8.000000 81.000000 1.000013
v 8.000000 82.000000 -0.999987
v 9.000000 78.000000 2.000013
v 9.000000 78.000000 -0.999987
v 9.000000 80.000000 2.000013
v 9.000000 80.000000 -1.999987
v 9.000000 80.000000 -0.999987
v 9.000000 83.000000 -0.999986
v -9.000000 76.000000 -1.999988
v -9.000000 80.000000 2.000013
v -9.000000 80.000000 1.000013
v -8.000000 81.000000 1.000013
v -8.000000 82.000000 -0.999987
v 11.000000 76.000000 2.000012
v 11.000000 78.000000 2.000013
v 11.000000 78.000000 -0.999987
v 11.000000 80.000000 2.000013
v 12.000000 75.000000 1.000012
v -11.000000 78.000000 2.000013
v -11.000000 82.000000 2.000013
v -11.000000 80.000000 2.000013
v -9.000000 78.000000 2.000013
v -9.000000 82.000000 2.000013
v 10.000000 78.000000 2.000013
v 9.000000 76.000000 2.000012
v 11.000000 82.000000 2.000013
v -11.000000 80.000000 1.000013
v -9.000000 76.000000 1.000012
v -9.000000 83.000000 1.000013
v -9.000000 78.000000 1.000013
v -8.000000 77.000000 1.000013
v -8.000000 82.000000 1.000013
v 8.000000 77.000000 1.000013
v 9.000000 82.000000 1.000013
v 11.000000 76.000000 1.000012
v 9.000000 75.000000 1.000012
v 10.000000 80.000000 1.000013
v 11.000000 82.000000 1.000013
v 9.000000 83.000000 1.000013
v 12.000000 78.000000 1.000013
v 12.000000 80.000000 1.000013
v 12.000000 83.000000 1.000013
v -12.000000 80.000000 -0.999987
v -11.000000 80.000000 -0.999987
v -11.000000 82.000000 -0.999987
v -10.000000 78.000000 -0.999987
v -9.000000 75.000000 -0.999988
v -9.000000 76.000000 -0.999988
v -8.000000 76.000000 -0.999988
v -8.000000 77.000000 -0.999987
v -9.000000 80.000000 -0.999987
v 8.000000 76.000000 -0.999988
v 9.000000 75.000000 -0.999988
v 11.000000 76.000000 -0.999988
v 10.000000 78.000000 -0.999987
v 10.000000 80.000000 -0.999987
v 11.000000 80.000000 -0.999987
v 11.000000 82.000000 -0.999987
v 12.000000 75.000000 -0.999988
v -11.000000 80.000000 -1.999987
v -10.000000 80.000000 -1.999987
v -9.000000 78.000000 -1.999987
v -9.000000 82.000000 -1.999987
v 9.000000 78.000000 -1.999987
v 10.000000 78.000000 -1.999987
v 9.000000 82.000000 -1.999987
v 10.000000 80.000000 -1.999987
v 11.000000 76.000000 -1.999988
v -9.000000 75.000000 1.000012
v -12.000000 75.000000 1.000012
v -11.000000 76.000000 1.000012
v -9.000000 76.000000 2.000012
v 9.000000 76.000000 1.000012
v -8.000000 76.000000 1.000012
v 9.000000 76.000000 -0.999988
v 9.000000 76.000000 -1.999988
v 9.000000 78.000000 1.000013
v -9.000000 78.000000 -0.999987
v 10.000000 80.000000 2.000013
v 11.000000 80.000000 1.000013
v -12.000000 80.000000 1.000013
v 12.000000 80.000000 -0.999987
v 11.000000 80.000000 -1.999987
v -10.000000 78.000000 2.000013
v -11.000000 78.000000 1.000013
v 10.000000 78.000000 1.000013
v 11.000000 78.000000 1.000013
v -12.000000 78.000000 1.000013
v -11.000000 78.000000 -0.999987
v 12.000000 78.000000 -0.999987
v -10.000000 78.000000 -1.999987
v 11.000000 78.000000 -1.999987
v 9.000000 80.000000 1.000013
v -9.000000 80.000000 -1.999987
v -8.000000 81.000000 -0.999987
v -11.000000 82.000000 1.000013
v -9.000000 82.000000 1.000013
v 9.000000 82.000000 2.000013
v -9.000000 82.000000 -0.999987
v 8.000000 82.000000 1.000013
v 9.000000 82.000000 -0.999987
v -11.000000 82.000000 -1.999987
v 11.000000 82.000000 -1.999987
v -12.000000 83.000000 -0.999986
v -9.000000 83.000000 -0.999986
v 12.000000 83.000000 -0.999986
vt 0.9629 0.5000
vt 0.9629 0.5000
vt 0.9629 0.5000
vt 0.9629 0.5000
vt 0.9629 0.5000
vt 0.9629 0.5000
vt 0.9629 0.5000
vt 0.9629 0.5000
vt 0.9629 0.5000
vt 0.9629 0.5000
vt 0.9629 0.5000
vt 0.9629 0.5000
vt 0.9629 0.5000
vt 0.9629 0.5000
vt 0.9629 0.5000
vt 0.9629 0.5000
vt 0.9629 0.5000
vt 0.9629 0.5000
vt 0.9629 0.5000
vt 0.9629 0.5000
vt 0.9629 0.5000
vt 0.9629 0.5000
vt 0.9629 0.5000
vt 0.9629 0.5000
vt 0.9629 0.5000
vt 0.9629 0.5000
vt 0.9629 0.5000
vt 0.9629 0.5000
vt 0.9629 0.5000
vt 0.9629 0.5000
vt 0.9629 0.5000
vt 0.9629 0.5000
vt 0.9629 0.5000
vt 0.9629 0.5000
vt 0.9629 0.5000
vt 0.9629 0.5000
vt 0.9629 0.5000
vt 0.9629 0.5000
vt 0.9629 0.5000
vt 0.9629 0.5000
vt 0.9629 0.5000
vt 0.9629 0.5000
vt 0.9629 0.5000
vt 0.9629 0.5000
vt 0.9629 0.5000
vt 0.9629 0.5000
vt 0.9629 0.5000
vt 0.9629 0.5000
vt 0.9629 0.5000
vt 0.9629 0.5000
vt 0.9629 0.5000
vt 0.9629 0.5000
vt 0.9629 0.5000
vt 0.9629 0.5000
vt 0.9629 0.5000
vt 0.9629 0.5000
vt 0.9629 0.5000
vt 0.9629 0.5000
vt 0.9629 0.5000
vt 0.9629 0.5000
vt 0.9629 0.5000
vt 0.9629 0.5000
vt 0.9629 0.5000
vt 0.9629 0.5000
vt 0.9629 0.5000
vt 0.9629 0.5000
vt 0.9629 0.5000
vt 0.9629 0.5000
vt 0.9629 0.5000
vt 0.9629 0.5000
vt 0.9629 0.5000
vt 0.9629 0.5000
vt 0.9629 0.5000
vt 0.9629 0.5000
vt 0.9629 0.5000
vt 0.9629 0.5000
vt 0.9629 0.5000
vt 0.9629 0.5000
vt 0.9629 0.5000
vt 0.9629 0.5000
vt 0.9629 0.5000
vt 0.9629 0.5000
vt 0.9629 0.5000
vt 0.9629 0.5000
vt 0.9629 0.5000
vt 0.9629 0.5000
vt 0.9629 0.5000
vt 0.9629 0.5000
vt 0.9629 0.5000
vt 0.9629 0.5000
vt 0.9629 0.5000
vt 0.9629 0.5000
vt 0.9629 0.5000
vt 0.9629 0.5000
vt 0.9629 0.5000
vt 0.9629 0.5000
vt 0.9629 0.5000
vt 0.9629 0.5000
vt 0.9629 0.5000
vt 0.9629 0.5000
vt 0.9629 0.5000
vt 0.9629 0.5000
vt 0.9629 0.5000
vt 0.9629 0.5000
vt 0.9629 0.5000
vt 0.9629 0.5000
vt 0.9629 0.5000
vt 0.9629 0.5000
vt 0.9629 0.5000
vt 0.9629 0.5000
vt 0.9629 0.5000
vt 0.9629 0.5000
vt 0.9629 0.5000
vt 0.9629 0.5000
vt 0.9629 0.5000
vt 0.9629 0.5000
vt 0.9629 0.5000
vt 0.9629 0.5000
vt 0.9629 0.5000
vt 0.9629 0.5000
vn 1.0000 0.0000 0.0000
vn 0.0000 1.0000 0.0000
vn -1.0000 0.0000 0.0000
vn 0.0000 0.0000 -1.0000
vn 0.0000 -1.0000 0.0000
vn 0.0000 -0.0000 1.0000
usemtl palette
s off
f 113/1/1 119/2/1 43/3/1 111/4/1
f 46/5/2 27/6/2 113/1/2 111/4/2
f 2/7/3 1/8/3 84/9/3 102/10/3
f 118/11/3 57/12/3 95/13/3 3/14/3
f 70/15/4 71/16/4 30/17/4 69/18/4
f 13/19/5 47/20/5 45/21/5 64/22/5
f 42/23/1 44/24/1 36/25/1 86/26/1
f 82/27/5 68/28/5 89/29/5 90/30/5
f 7/31/3 5/32/3 6/33/3 103/34/3
f 54/35/2 104/36/2 30/17/2 101/37/2
f 96/38/5 55/39/5 94/40/5 71/16/5
f 13/19/3 66/41/3 12/42/3 47/20/3
f 61/43/1 62/44/1 42/23/1 83/45/1
f 94/40/5 31/46/5 93/47/5 51/48/5
f 82/27/1 106/49/1 30/17/1 68/28/1
f 29/50/2 101/37/2 100/51/2 38/52/2
f 97/53/5 71/16/5 70/15/5 81/54/5
f 73/55/1 104/36/1 54/35/1 32/56/1
f 99/57/2 103/34/2 2/7/2 102/10/2
f 78/58/3 90/30/3 89/29/3 18/59/3
f 22/60/3 115/61/3 48/62/3 53/63/3
f 23/64/1 76/65/1 92/66/1 62/44/1
f 108/67/1 77/68/1 113/1/1 65/69/1
f 100/51/1 51/48/1 93/47/1 38/52/1
f 89/29/3 67/70/3 50/71/3 87/72/3
f 30/17/1 71/16/1 94/40/1 101/37/1
f 10/73/5 8/74/5 35/75/5 41/76/5
f 91/77/3 87/72/3 39/78/3 17/79/3
f 98/80/2 9/81/2 99/57/2 33/82/2
f 49/83/1 101/37/1 29/50/1 28/84/1
f 21/85/2 20/86/2 108/67/2 65/69/2
f 75/87/5 11/88/5 58/89/5 74/90/5
f 48/62/2 115/61/2 16/91/2 114/92/2
f 58/89/5 41/76/5 95/13/5 57/12/5
f 37/93/6 34/94/6 8/74/6 24/95/6
f 8/74/6 34/94/6 35/75/6
f 86/26/6 8/74/6 98/80/6
f 36/25/6 8/74/6 86/26/6
f 80/96/4 117/97/4 97/53/4 81/54/4
f 24/95/6 8/74/6 36/25/6
f 58/89/3 103/34/3 99/57/3 41/76/3
f 38/52/6 17/79/6 39/78/6
f 38/52/6 112/98/6 19/99/6
f 38/52/6 19/99/6 17/79/6
f 93/47/6 112/98/6 38/52/6
f 79/100/4 82/27/4 90/30/4 78/58/4
f 85/101/6 102/10/6 84/9/6
f 99/57/6 102/10/6 85/101/6
f 41/76/6 3/14/6 95/13/6
f 110/102/6 3/14/6 41/76/6
f 30/17/2 106/49/2 79/100/2 69/18/2
f 83/45/6 85/101/6 84/9/6
f 42/23/6 85/101/6 83/45/6
f 111/4/6 3/14/6 110/102/6
f 43/3/6 3/14/6 111/4/6
f 88/103/6 44/24/6 42/23/6
f 45/21/6 44/24/6 88/103/6
f 26/104/6 111/4/6 25/105/6
f 46/5/6 111/4/6 26/104/6
f 47/20/6 44/24/6 45/21/6
f 15/106/6 26/104/6 25/105/6
f 87/72/6 47/20/6 12/42/6
f 91/77/6 44/24/6 47/20/6
f 91/77/6 47/20/6 87/72/6
f 107/107/6 114/92/6 15/106/6
f 107/107/6 15/106/6 25/105/6
f 48/62/6 114/92/6 107/107/6
f 49/83/6 87/72/6 50/71/6
f 63/108/1 64/22/1 45/21/1 88/103/1
f 52/109/6 53/63/6 48/62/6
f 32/56/6 49/83/6 50/71/6
f 32/56/6 101/37/6 49/83/6
f 54/35/6 101/37/6 32/56/6
f 55/39/6 52/109/6 94/40/6
f 56/110/6 53/63/6 52/109/6
f 56/110/6 52/109/6 55/39/6
f 1/8/4 2/7/4 6/33/4
f 6/33/4 2/7/4 103/34/4
f 57/12/4 118/11/4 58/89/4
f 58/89/4 118/11/4 59/111/4
f 109/112/1 27/6/1 46/5/1 26/104/1
f 1/8/4 6/33/4 61/43/4
f 61/43/4 6/33/4 62/44/4
f 59/111/4 118/11/4 113/1/4
f 113/1/4 118/11/4 119/2/4
f 62/44/4 92/66/4 63/108/4
f 63/108/4 92/66/4 64/22/4
f 65/69/4 113/1/4 109/112/4
f 109/112/4 113/1/4 27/6/4
f 64/22/4 92/66/4 13/19/4
f 65/69/4 109/112/4 14/113/4
f 66/41/4 13/19/4 89/29/4
f 13/19/4 92/66/4 18/59/4
f 89/29/4 13/19/4 18/59/4
f 14/113/4 16/91/4 21/85/4
f 65/69/4 14/113/4 21/85/4
f 21/85/4 16/91/4 115/61/4
f 67/70/4 89/29/4 68/28/4
f 113/1/2 77/68/2 116/114/2 59/111/2
f 115/61/4 22/60/4 72/115/4
f 67/70/4 68/28/4 73/55/4
f 68/28/4 30/17/4 73/55/4
f 73/55/4 30/17/4 104/36/4
f 71/16/4 72/115/4 96/38/4
f 72/115/4 22/60/4 120/116/4
f 96/38/4 72/115/4 120/116/4
f 40/117/6 112/98/6 93/47/6 31/46/6
f 74/90/4 116/114/4 75/87/4
f 105/118/4 75/87/4 23/64/4
f 23/64/4 75/87/4 76/65/4
f 105/118/4 23/64/4 5/32/4 7/31/4
f 76/65/4 75/87/4 108/67/4
f 99/57/3 85/101/3 4/119/3 33/82/3
f 86/26/6 98/80/6 33/82/6 4/119/6
f 20/86/4 80/96/4 79/100/4
f 78/58/4 20/86/4 79/100/4
f 79/100/4 80/96/4 81/54/4
f 82/27/4 79/100/4 106/49/4
f 116/114/4 77/68/4 108/67/4 75/87/4
f 42/23/5 86/26/5 4/119/5 85/101/5
f 10/73/6 41/76/6 99/57/6 9/81/6
f 63/108/5 88/103/5 42/23/5 62/44/5
f 73/55/5 32/56/5 50/71/5 67/70/5
f 58/89/4 11/88/4 60/120/4 103/34/4
f 37/93/2 111/4/2 110/102/2 34/94/2
f 94/40/6 51/48/6 100/51/6 101/37/6
f 108/67/4 20/86/4 78/58/4 76/65/4
f 49/83/5 28/84/5 39/78/5 87/72/5
f 61/43/5 83/45/5 84/9/5 1/8/5
f 110/102/3 41/76/3 35/75/3 34/94/3
f 91/77/5 17/79/5 36/25/5 44/24/5
f 60/120/2 105/118/2 7/31/2 103/34/2
f 48/62/3 107/107/3 19/99/3 112/98/3
f 116/114/3 74/90/3 58/89/3 59/111/3
f 79/100/1 81/54/1 70/15/1 69/18/1
f 97/53/1 117/97/1 72/115/1 71/16/1
f 75/87/3 105/118/3 60/120/3 11/88/3
f 10/73/3 9/81/3 98/80/3 8/74/3
f 23/64/5 62/44/5 6/33/5 5/32/5
f 29/50/6 38/52/6 39/78/6 28/84/6
f 78/58/5 18/59/5 92/66/5 76/65/5
f 16/91/3 14/113/3 15/106/3 114/92/3
f 15/106/2 14/113/2 109/112/2 26/104/2
f 72/115/2 117/97/2 80/96/2 115/61/2
f 43/3/2 119/2/2 118/11/2 3/14/2
f 94/40/1 52/109/1 40/117/1 31/46/1
f 19/99/2 107/107/2 25/105/2 24/95/2
f 25/105/1 111/4/1 37/93/1 24/95/1
f 89/29/5 87/72/5 12/42/5 66/41/5
f 80/96/3 20/86/3 21/85/3 115/61/3
f 56/110/2 120/116/2 22/60/2 53/63/2
f 19/99/6 24/95/6 36/25/6 17/79/6
f 96/38/1 120/116/1 56/110/1 55/39/1
f 40/117/2 52/109/2 48/62/2 112/98/2
