# Blender v2.78 (sub 0) OBJ File: ''
# www.blender.org
mtllib Stick.mtl
o Stick
v -6.000000 0.000000 -1.000000
v -6.000000 -0.000000 1.000000
v -5.000000 6.000000 -0.999999
v -2.000000 21.000000 1.000003
v -1.000000 21.000000 -0.999997
v 0.000000 22.000000 -0.999996
v 2.000000 22.000000 1.000004
v 2.000000 21.000000 -0.999997
v 2.000000 21.000000 1.000003
v 2.000000 24.000000 1.000004
v 2.000000 23.000000 -0.999996
v -4.000000 0.000000 -1.000000
v -4.000000 3.000000 1.000000
v -4.000000 3.000000 -1.000000
v -3.000000 17.000000 1.000003
v -3.000000 17.000000 -0.999997
v -3.000000 19.000000 1.000003
v -3.000000 28.000000 1.000005
v -2.000000 18.000000 1.000003
v -2.000000 18.000000 -0.999997
v -1.000000 18.000000 1.000003
v 0.000000 21.000000 1.000003
v 1.000000 21.000000 1.000003
v 1.000000 21.000000 -0.999997
v 3.000000 22.000000 1.000004
v 3.000000 22.000000 0.000004
v 3.000000 24.000000 1.000004
v 4.000000 23.000000 1.000004
v 5.000000 21.000000 0.000003
v 5.000000 22.000000 -0.999996
v 5.000000 23.000000 0.000004
v 5.000000 23.000000 -0.999996
v 5.000000 24.000000 0.000004
v 6.000000 23.000000 0.000004
v 6.000000 23.000000 -0.999996
v -6.000000 6.000000 1.000001
v -4.000000 -0.000000 1.000000
v -5.000000 28.000000 1.000005
v -3.000000 3.000000 1.000000
v -1.000000 21.000000 1.000003
v 0.000000 20.000000 1.000003
v 0.000000 23.000000 1.000004
v 1.000000 22.000000 1.000004
v 2.000000 23.000000 1.000004
v 3.000000 23.000000 1.000004
v 4.000000 22.000000 0.000004
v 3.000000 23.000000 0.000004
v 6.000000 22.000000 0.000004
v -5.000000 28.000000 -0.999995
v -3.000000 28.000000 -0.999995
v -2.000000 17.000000 -0.999997
v -2.000000 19.000000 -0.999997
v -1.000000 18.000000 -0.999997
v -1.000000 22.000000 -0.999996
v 0.000000 21.000000 -0.999997
v 0.000000 23.000000 -0.999996
v 2.000000 22.000000 -0.999996
v 5.000000 24.000000 -0.999996
v 6.000000 22.000000 -0.999996
v -3.000000 3.000000 -1.000000
v -2.000000 17.000000 1.000003
v -1.000000 20.000000 -0.999997
v -1.000000 20.000000 1.000003
v 0.000000 20.000000 -0.999997
v 3.000000 21.000000 0.000003
v 3.000000 21.000000 1.000003
v 5.000000 21.000000 -0.999997
v 4.000000 22.000000 1.000004
v 1.000000 22.000000 -0.999996
v 5.000000 22.000000 0.000004
v -5.000000 6.000000 1.000001
v -6.000000 6.000000 -0.999999
v -2.000000 19.000000 1.000003
v -3.000000 19.000000 -0.999997
v -2.000000 21.000000 -0.999997
v -1.000000 22.000000 1.000004
v 0.000000 22.000000 1.000004
v 4.000000 23.000000 0.000004
v 3.000000 24.000000 0.000004
v 2.000000 24.000000 -0.999996
vt 0.3691 0.5000
vt 0.3691 0.5000
vt 0.3691 0.5000
vt 0.3691 0.5000
vt 0.9043 0.5000
vt 0.9043 0.5000
vt 0.9043 0.5000
vt 0.9043 0.5000
vt 0.3691 0.5000
vt 0.3691 0.5000
vt 0.3691 0.5000
vt 0.3691 0.5000
vt 0.9043 0.5000
vt 0.9043 0.5000
vt 0.9043 0.5000
vt 0.9043 0.5000
vt 0.3691 0.5000
vt 0.3691 0.5000
vt 0.3691 0.5000
vt 0.3691 0.5000
vt 0.3691 0.5000
vt 0.3691 0.5000
vt 0.3691 0.5000
vt 0.3691 0.5000
vt 0.3691 0.5000
vt 0.3691 0.5000
vt 0.3691 0.5000
vt 0.3691 0.5000
vt 0.9043 0.5000
vt 0.9043 0.5000
vt 0.9043 0.5000
vt 0.3691 0.5000
vt 0.3691 0.5000
vt 0.3691 0.5000
vt 0.3691 0.5000
vt 0.3691 0.5000
vt 0.3691 0.5000
vt 0.3691 0.5000
vt 0.3691 0.5000
vt 0.3691 0.5000
vt 0.3691 0.5000
vt 0.3691 0.5000
vt 0.3691 0.5000
vt 0.3691 0.5000
vt 0.3691 0.5000
vt 0.9043 0.5000
vt 0.9043 0.5000
vt 0.9043 0.5000
vt 0.9043 0.5000
vt 0.9043 0.5000
vt 0.9043 0.5000
vt 0.9043 0.5000
vt 0.9043 0.5000
vt 0.3691 0.5000
vt 0.3691 0.5000
vt 0.9043 0.5000
vt 0.9043 0.5000
vt 0.3691 0.5000
vt 0.3691 0.5000
vt 0.3691 0.5000
vt 0.3691 0.5000
vt 0.3691 0.5000
vt 0.3691 0.5000
vt 0.3691 0.5000
vt 0.3691 0.5000
vt 0.3691 0.5000
vt 0.3691 0.5000
vt 0.9043 0.5000
vt 0.9043 0.5000
vt 0.9043 0.5000
vt 0.9043 0.5000
vt 0.9043 0.5000
vt 0.9043 0.5000
vt 0.3691 0.5000
vt 0.9043 0.5000
vt 0.9043 0.5000
vt 0.9043 0.5000
vt 0.3691 0.5000
vt 0.3691 0.5000
vt 0.3691 0.5000
vt 0.3691 0.5000
vt 0.3691 0.5000
vt 0.9043 0.5000
vt 0.9043 0.5000
vn 1.0000 0.0000 0.0000
vn 0.0000 -0.0000 1.0000
vn 0.0000 -1.0000 0.0000
vn 0.0000 1.0000 0.0000
vn -1.0000 0.0000 0.0000
vn 0.0000 0.0000 -1.0000
usemtl palette.003
s off
f 51/1/1 20/2/1 19/3/1 61/4/1
f 28/5/2 45/6/2 25/7/2 68/8/2
f 57/9/3 7/10/3 43/11/3 69/12/3
f 34/13/2 31/14/2 70/15/2 48/16/2
f 37/17/2 71/18/2 36/19/2 2/20/2
f 24/21/3 23/22/3 22/23/3 55/24/3
f 60/25/3 39/26/3 13/27/3 14/28/3
f 32/29/1 58/30/1 33/31/1 31/14/1
f 77/32/4 6/33/4 54/34/4 76/35/4
f 73/36/4 52/37/4 74/38/4 17/39/4
f 53/40/1 62/41/1 63/42/1 21/43/1
f 74/38/1 50/44/1 18/45/1 17/39/1
f 65/46/1 26/47/1 25/7/1 66/48/1
f 46/49/3 68/8/3 25/7/3 26/47/3
f 47/50/1 79/51/1 27/52/1 45/6/1
f 34/13/4 35/53/4 32/29/4 31/14/4
f 56/54/5 6/33/5 77/32/5 42/55/5
f 53/40/3 21/43/3 19/3/3 20/2/3
f 59/56/3 48/16/3 70/15/3 30/57/3
f 12/58/1 14/28/1 13/27/1 37/17/1
f 3/59/6 12/58/6 1/60/6 72/61/6
f 37/17/2 38/62/2 71/18/2
f 13/27/2 38/62/2 37/17/2
f 39/26/2 38/62/2 13/27/2
f 15/63/2 38/62/2 39/26/2
f 17/39/2 38/62/2 15/63/2
f 18/45/2 38/62/2 17/39/2
f 61/4/2 17/39/2 15/63/2
f 19/3/2 17/39/2 61/4/2
f 73/36/2 17/39/2 19/3/2
f 21/43/2 4/64/2 73/36/2
f 21/43/2 73/36/2 19/3/2
f 63/42/2 4/64/2 21/43/2
f 40/65/2 4/64/2 63/42/2
f 41/66/2 76/35/2 40/65/2
f 41/66/2 40/65/2 63/42/2
f 22/23/2 76/35/2 41/66/2
f 77/32/2 76/35/2 22/23/2
f 23/22/2 42/55/2 77/32/2
f 23/22/2 77/32/2 22/23/2
f 43/11/2 42/55/2 23/22/2
f 7/10/2 42/55/2 43/11/2
f 44/67/2 42/55/2 7/10/2
f 66/48/2 7/68/2 9/69/2
f 66/48/2 10/70/2 44/71/2
f 66/48/2 44/71/2 7/68/2
f 25/7/2 10/70/2 66/48/2
f 45/6/2 10/70/2 25/7/2
f 27/52/2 10/70/2 45/6/2
f 72/61/5 1/60/5 2/20/5 36/19/5
f 46/49/2 26/47/2 65/46/2
f 78/72/2 79/51/2 47/50/2
f 29/73/2 46/49/2 65/46/2
f 29/73/2 78/72/2 46/49/2
f 70/15/2 78/72/2 29/73/2
f 31/14/2 79/51/2 78/72/2
f 31/14/2 78/72/2 70/15/2
f 33/31/2 79/51/2 31/14/2
f 49/74/5 3/59/5 71/18/5 38/62/5
f 80/75/6 30/57/6 67/76/6 11/77/6
f 3/59/6 49/74/6 12/58/6
f 12/58/6 49/74/6 14/28/6
f 14/28/6 49/74/6 60/25/6
f 60/25/6 49/74/6 16/78/6
f 16/78/6 49/74/6 74/38/6
f 74/38/6 49/74/6 50/44/6
f 16/78/6 74/38/6 51/1/6
f 51/1/6 74/38/6 20/2/6
f 20/2/6 74/38/6 52/37/6
f 52/37/6 75/79/6 53/40/6
f 20/2/6 52/37/6 53/40/6
f 53/40/6 75/79/6 62/41/6
f 62/41/6 75/79/6 5/80/6
f 5/80/6 54/34/6 64/81/6
f 62/41/6 5/80/6 64/81/6
f 64/81/6 54/34/6 55/24/6
f 55/24/6 54/34/6 6/33/6
f 6/33/6 56/54/6 24/21/6
f 55/24/6 6/33/6 24/21/6
f 24/21/6 56/54/6 69/12/6
f 69/12/6 56/54/6 57/9/6
f 57/9/6 56/54/6 11/82/6
f 8/83/6 57/84/6 67/76/6
f 57/84/6 11/77/6 67/76/6
f 30/57/6 80/75/6 32/29/6
f 32/29/6 80/75/6 58/30/6
f 64/81/3 41/66/3 63/42/3 62/41/3
f 80/75/5 11/77/5 44/71/5 10/70/5
f 32/29/6 35/53/6 59/56/6 30/57/6
f 57/84/5 8/83/5 9/69/5 7/68/5
f 44/67/4 11/82/4 56/54/4 42/55/4
f 75/79/5 52/37/5 73/36/5 4/64/5
f 65/46/3 66/48/3 9/69/3
f 46/49/1 78/72/1 28/5/1 68/8/1
f 8/83/3 29/73/3 65/46/3
f 8/83/3 65/46/3 9/69/3
f 67/76/3 29/73/3 8/83/3
f 40/65/4 5/80/4 75/79/4 4/64/4
f 54/34/5 5/80/5 40/65/5 76/35/5
f 67/76/1 30/57/1 70/15/1 29/73/1
f 64/81/1 55/24/1 22/23/1 41/66/1
f 28/5/4 78/72/4 47/50/4 45/6/4
f 18/45/4 50/44/4 49/74/4 38/62/4
f 24/21/1 69/12/1 43/11/1 23/22/1
f 60/25/1 16/78/1 15/63/1 39/26/1
f 51/1/3 61/4/3 15/63/3 16/78/3
f 59/56/1 35/53/1 34/13/1 48/16/1
f 10/70/4 27/52/4 79/51/4
f 10/70/4 79/51/4 80/75/4
f 79/51/4 33/31/4 80/75/4
f 80/75/4 33/31/4 58/30/4
f 71/18/4 3/59/4 72/61/4 36/19/4
f 12/58/3 37/17/3 2/20/3 1/60/3
