# Blender v2.78 (sub 0) OBJ File: ''
# www.blender.org
mtllib Painting_2.mtl
o Painting_2
v -13.000000 2.999998 14.500001
v -13.000000 0.000002 -11.500000
v -13.000000 3.000002 -11.499999
v -2.000000 0.000002 -13.500000
v -2.000000 0.000002 -11.500000
v -1.000000 3.000002 -13.499999
v 11.000000 1.999998 12.500000
v 11.000000 2.000001 -9.500000
v -11.000000 1.999998 12.500000
v -11.000000 1.999998 10.500000
v -11.000000 3.000001 -9.499999
v 2.000000 0.000002 -13.500000
v 2.000000 3.000002 -13.499999
v 13.000000 -0.000002 14.500000
v -11.000000 2.000001 -9.500000
v 11.000000 3.000001 -9.499999
v -11.000000 2.999998 12.500001
v 11.000000 2.999998 12.500001
v -2.000000 3.000002 -11.499999
v 2.000000 0.000002 -11.500000
v 2.000000 3.000002 -11.499999
v -1.000000 0.000002 -13.500000
v 1.000000 3.000002 -13.499999
v -1.000000 3.000002 -14.499999
v 1.000000 0.000002 -14.500000
v -13.000000 -0.000002 14.500000
v -1.000000 0.000002 -11.500000
v 0.000000 0.000002 -11.500000
v 1.000000 0.000002 -11.500000
v 13.000000 0.000002 -11.500000
v -1.000000 0.000002 -12.500000
v 0.000000 0.000002 -12.500000
v 1.000000 0.000002 -12.500000
v 0.000000 0.000002 -13.500000
v 1.000000 0.000002 -13.500000
v -1.000000 0.000002 -14.500000
v -8.000000 1.999998 10.500000
v -8.000000 1.999998 9.500000
v -6.000000 1.999998 9.500000
v -6.000000 1.999999 8.500000
v -3.000000 1.999999 8.500000
v -3.000000 1.999999 7.500000
v 0.000000 1.999999 7.500000
v 0.000000 1.999999 6.500000
v 1.000000 1.999999 6.500000
v 1.000000 1.999999 5.500000
v 2.000000 1.999999 5.500000
v 4.000000 1.999999 5.500000
v 1.000000 1.999999 4.500000
v 2.000000 1.999999 4.500000
v 4.000000 1.999999 4.500000
v 6.000000 1.999999 4.500000
v -2.000000 1.999999 3.500000
v -1.000000 1.999999 3.500000
v 1.000000 1.999999 3.500000
v 6.000000 1.999999 3.500000
v 9.000000 1.999999 3.500000
v -7.000000 2.000000 2.500000
v -2.000000 2.000000 2.500000
v 9.000000 2.000000 2.500000
v 11.000000 2.000000 2.500000
v -11.000000 2.000000 1.500000
v -7.000000 2.000000 1.500000
v -2.000000 2.000000 0.500000
v -1.000000 2.000000 0.500000
v 1.000000 2.000000 0.500000
v 2.000000 2.000000 0.500000
v -3.000000 2.000000 -0.500000
v -2.000000 2.000000 -0.500000
v -3.000000 2.000000 -1.500000
v -2.000000 2.000000 -1.500000
v 2.000000 2.000000 -1.500000
v 3.000000 2.000000 -1.500000
v 2.000000 2.000000 -2.500000
v 3.000000 2.000000 -2.500000
v -2.000000 2.000000 -3.500000
v -1.000000 2.000000 -3.500000
v 1.000000 2.000000 -3.500000
v 2.000000 2.000000 -3.500000
v -1.000000 2.000001 -4.500000
v 1.000000 2.000001 -4.500000
v 10.000000 2.000001 -4.500000
v 11.000000 2.000001 -4.500000
v -10.000000 2.000001 -5.500000
v -6.000000 2.000001 -5.500000
v -2.000000 2.000001 -5.500000
v 3.000000 2.000001 -5.500000
v 8.000000 2.000001 -5.500000
v 10.000000 2.000001 -5.500000
v -10.000000 2.000001 -6.500000
v -9.000000 2.000001 -6.500000
v -6.000000 2.000001 -6.500000
v -5.000000 2.000001 -6.500000
v -2.000000 2.000001 -6.500000
v -1.000000 2.000001 -6.500000
v 7.000000 2.000001 -6.500000
v 8.000000 2.000001 -6.500000
v -9.000000 2.000001 -7.500000
v -8.000000 2.000001 -7.500000
v -6.000000 2.000001 -7.500000
v -5.000000 2.000001 -7.500000
v -1.000000 2.000001 -7.500000
v 0.000000 2.000001 -7.500000
v 2.000000 2.000001 -7.500000
v 3.000000 2.000001 -7.500000
v -8.000000 2.000001 -8.500000
v -6.000000 2.000001 -8.500000
v 0.000000 2.000001 -8.500000
v 2.000000 2.000001 -8.500000
v 6.000000 2.000001 -8.500000
v 7.000000 2.000001 -8.500000
v 6.000000 2.000001 -9.500000
v 13.000000 2.999998 14.500001
v -1.000000 3.000002 -11.499999
v 0.000000 3.000002 -11.499999
v 1.000000 3.000002 -11.499999
v 13.000000 3.000002 -11.499999
v -1.000000 3.000002 -12.499999
v 0.000000 3.000002 -12.499999
v 1.000000 3.000002 -12.499999
v -2.000000 3.000002 -13.499999
v 0.000000 3.000002 -13.499999
v 1.000000 3.000002 -14.499999
vt 0.5371 0.5000
vt 0.5371 0.5000
vt 0.5371 0.5000
vt 0.5371 0.5000
vt 0.5371 0.5000
vt 0.5371 0.5000
vt 0.5371 0.5000
vt 0.5371 0.5000
vt 0.5371 0.5000
vt 0.5371 0.5000
vt 0.5371 0.5000
vt 0.5371 0.5000
vt 0.5371 0.5000
vt 0.5371 0.5000
vt 0.5371 0.5000
vt 0.5371 0.5000
vt 0.5371 0.5000
vt 0.5371 0.5000
vt 0.5371 0.5000
vt 0.5371 0.5000
vt 0.5371 0.5000
vt 0.5371 0.5000
vt 0.5371 0.5000
vt 0.5371 0.5000
vt 0.5371 0.5000
vt 0.5371 0.5000
vt 0.5371 0.5000
vt 0.5371 0.5000
vt 0.5371 0.5000
vt 0.5371 0.5000
vt 0.5371 0.5000
vt 0.5371 0.5000
vt 0.5371 0.5000
vt 0.5371 0.5000
vt 0.5371 0.5000
vt 0.5371 0.5000
vt 0.5371 0.5000
vt 0.5371 0.5000
vt 0.5371 0.5000
vt 0.5371 0.5000
vt 0.5371 0.5000
vt 0.9824 0.5000
vt 0.9824 0.5000
vt 0.9824 0.5000
vt 0.9785 0.5000
vt 0.9785 0.5000
vt 0.9785 0.5000
vt 0.9824 0.5000
vt 0.5371 0.5000
vt 0.9785 0.5000
vt 0.9785 0.5000
vt 0.9785 0.5000
vt 0.9824 0.5000
vt 0.9824 0.5000
vt 0.9785 0.5000
vt 0.9824 0.5000
vt 0.5371 0.5000
vt 0.6543 0.5000
vt 0.6543 0.5000
vt 0.6543 0.5000
vt 0.6543 0.5000
vt 0.9043 0.5000
vt 0.9043 0.5000
vt 0.9043 0.5000
vt 0.6543 0.5000
vt 0.6543 0.5000
vt 0.9043 0.5000
vt 0.9043 0.5000
vt 0.6543 0.5000
vt 0.6543 0.5000
vt 0.9043 0.5000
vt 0.9043 0.5000
vt 0.6543 0.5000
vt 0.6543 0.5000
vt 0.9043 0.5000
vt 0.9043 0.5000
vt 0.6543 0.5000
vt 0.6543 0.5000
vt 0.9043 0.5000
vt 0.9043 0.5000
vt 0.6543 0.5000
vt 0.6543 0.5000
vt 0.6543 0.5000
vt 0.9043 0.5000
vt 0.9043 0.5000
vt 0.5879 0.5000
vt 0.5879 0.5000
vt 0.5879 0.5000
vt 0.9043 0.5000
vt 0.6543 0.5000
vt 0.5879 0.5000
vt 0.6543 0.5000
vt 0.9043 0.5000
vt 0.9043 0.5000
vt 0.5879 0.5000
vt 0.5879 0.5000
vt 0.9043 0.5000
vt 0.5879 0.5000
vt 0.6543 0.5000
vt 0.5879 0.5000
vt 0.6543 0.5000
vt 0.9043 0.5000
vt 0.5879 0.5000
vt 0.5879 0.5000
vt 0.5879 0.5000
vt 0.9043 0.5000
vt 0.6543 0.5000
vt 0.5879 0.5000
vt 0.5879 0.5000
vt 0.6543 0.5000
vt 0.9043 0.5000
vt 0.5879 0.5000
vt 0.5879 0.5000
vt 0.9043 0.5000
vt 0.5879 0.5000
vt 0.5879 0.5000
vt 0.3691 0.5000
vt 0.3691 0.5000
vt 0.3691 0.5000
vt 0.5879 0.5000
vt 0.5879 0.5000
vt 0.3691 0.5000
vt 0.5879 0.5000
vt 0.5879 0.5000
vt 0.5879 0.5000
vt 0.8965 0.5000
vt 0.8965 0.5000
vt 0.8965 0.5000
vt 0.5879 0.5000
vt 0.8965 0.5000
vt 0.8965 0.5000
vt 0.5879 0.5000
vt 0.8965 0.5000
vt 0.8965 0.5000
vt 0.8965 0.5000
vt 0.5879 0.5000
vt 0.8965 0.5000
vt 0.5879 0.5000
vt 0.8965 0.5000
vt 0.8965 0.5000
vt 0.5879 0.5000
vt 0.8965 0.5000
vt 0.5879 0.5000
vt 0.5879 0.5000
vt 0.8965 0.5000
vt 0.8965 0.5000
vt 0.8965 0.5000
vt 0.5879 0.5000
vt 0.5879 0.5000
vt 0.8965 0.5000
vt 0.8965 0.5000
vt 0.5879 0.5000
vt 0.5879 0.5000
vt 0.5879 0.5000
vt 0.5879 0.5000
vt 0.8965 0.5000
vt 0.5879 0.5000
vt 0.5879 0.5000
vt 0.5879 0.5000
vt 0.5879 0.5000
vt 0.5879 0.5000
vt 0.5879 0.5000
vt 0.5879 0.5000
vt 0.0215 0.5000
vt 0.0215 0.5000
vt 0.0215 0.5000
vt 0.5879 0.5000
vt 0.5879 0.5000
vt 0.9590 0.5000
vt 0.9590 0.5000
vt 0.9590 0.5000
vt 0.9590 0.5000
vt 0.5879 0.5000
vt 0.9590 0.5000
vt 0.5879 0.5000
vt 0.9590 0.5000
vt 0.9590 0.5000
vt 0.9590 0.5000
vt 0.5879 0.5000
vt 0.9590 0.5000
vt 0.5879 0.5000
vt 0.0215 0.5000
vt 0.0215 0.5000
vt 0.5879 0.5000
vt 0.5879 0.5000
vt 0.5879 0.5000
vt 0.9590 0.5000
vt 0.9590 0.5000
vt 0.9590 0.5000
vt 0.9590 0.5000
vt 0.5879 0.5000
vt 0.5879 0.5000
vt 0.9590 0.5000
vt 0.9590 0.5000
vt 0.5879 0.5000
vt 0.9590 0.5000
vt 0.9590 0.5000
vt 0.5879 0.5000
vt 0.9590 0.5000
vt 0.9590 0.5000
vt 0.5879 0.5000
vt 0.5879 0.5000
vt 0.5879 0.5000
vt 0.5879 0.5000
vt 0.9590 0.5000
vt 0.5879 0.5000
vt 0.9590 0.5000
vt 0.5879 0.5000
vt 0.5879 0.5000
vt 0.5879 0.5000
vt 0.9590 0.5000
vt 0.5879 0.5000
vt 0.0215 0.5000
vt 0.0215 0.5000
vt 0.5879 0.5000
vt 0.5879 0.5000
vt 0.0215 0.5000
vt 0.0215 0.5000
vt 0.5879 0.5000
vt 0.0215 0.5000
vt 0.5371 0.5000
vt 0.5371 0.5000
vt 0.5371 0.5000
vt 0.5371 0.5000
vt 0.9824 0.5000
vt 0.9824 0.5000
vt 0.9824 0.5000
vt 0.9785 0.5000
vt 0.9785 0.5000
vt 0.9785 0.5000
vt 0.9824 0.5000
vt 0.5371 0.5000
vt 0.9785 0.5000
vt 0.9785 0.5000
vt 0.9785 0.5000
vt 0.9824 0.5000
vt 0.9824 0.5000
vt 0.9785 0.5000
vt 0.9824 0.5000
vt 0.5371 0.5000
vn -1.0000 0.0000 0.0000
vn 1.0000 0.0000 0.0000
vn 0.0000 -0.0000 1.0000
vn 0.0000 0.0000 -1.0000
vn 0.0000 -1.0000 -0.0000
vn 0.0000 1.0000 0.0000
usemtl palette.001
s off
f 1/1/1 2/2/1 26/3/1
f 3/4/1 2/2/1 1/1/1
f 19/5/1 4/6/1 5/7/1
f 121/8/1 4/6/1 19/5/1
f 6/9/1 36/10/1 22/11/1
f 24/12/1 36/10/1 6/9/1
f 18/13/1 61/14/1 7/15/1
f 18/13/1 8/16/1 83/17/1
f 18/13/1 83/17/1 61/14/1
f 16/18/1 8/16/1 18/13/1
f 9/19/2 10/20/2 17/21/2
f 62/22/2 15/23/2 17/21/2
f 10/20/2 62/22/2 17/21/2
f 17/21/2 15/23/2 11/24/2
f 35/25/2 25/26/2 23/27/2
f 23/27/2 25/26/2 123/28/2
f 20/29/2 12/30/2 21/31/2
f 21/31/2 12/30/2 13/32/2
f 14/33/2 30/34/2 113/35/2
f 113/35/2 30/34/2 117/36/2
f 14/33/3 1/1/3 26/3/3
f 113/35/3 1/1/3 14/33/3
f 112/37/3 11/24/3 15/23/3
f 8/16/3 11/24/3 112/37/3
f 16/18/3 11/24/3 8/16/3
f 9/19/4 17/21/4 7/15/4
f 7/15/4 17/21/4 18/13/4
f 2/2/4 3/4/4 5/7/4
f 5/7/4 3/4/4 19/5/4
f 20/29/4 21/31/4 30/34/4
f 30/34/4 21/31/4 117/36/4
f 4/6/4 121/8/4 22/11/4
f 22/11/4 121/8/4 6/9/4
f 35/25/4 23/27/4 12/30/4
f 12/30/4 23/27/4 13/32/4
f 36/10/4 24/12/4 25/26/4
f 25/26/4 24/12/4 123/28/4
f 2/2/5 14/33/5 26/3/5
f 5/7/5 14/33/5 2/2/5
f 27/38/5 14/33/5 5/7/5
f 28/39/5 14/33/5 27/38/5
f 29/40/5 14/33/5 28/39/5
f 20/29/5 14/33/5 29/40/5
f 30/34/5 14/33/5 20/29/5
f 31/41/5 27/38/5 5/7/5
f 31/42/5 28/43/5 27/44/5
f 32/45/5 29/46/5 28/47/5
f 32/48/5 28/43/5 31/42/5
f 33/49/5 20/29/5 29/40/5
f 33/50/5 29/46/5 32/45/5
f 4/6/5 31/41/5 5/7/5
f 22/51/5 32/45/5 31/52/5
f 22/11/5 31/41/5 4/6/5
f 34/53/5 33/54/5 32/48/5
f 34/55/5 32/45/5 22/51/5
f 35/25/5 20/29/5 33/49/5
f 35/56/5 33/54/5 34/53/5
f 12/30/5 20/29/5 35/25/5
f 36/10/5 34/57/5 22/11/5
f 36/10/5 35/25/5 34/57/5
f 25/26/5 35/25/5 36/10/5
f 9/58/6 7/59/6 10/60/6
f 10/60/6 7/59/6 37/61/6
f 10/62/6 37/63/6 38/64/6
f 37/61/6 7/59/6 38/65/6
f 38/65/6 7/59/6 39/66/6
f 38/64/6 39/67/6 40/68/6
f 39/66/6 7/59/6 40/69/6
f 40/69/6 7/59/6 41/70/6
f 40/68/6 41/71/6 42/72/6
f 41/70/6 7/59/6 42/73/6
f 42/73/6 7/59/6 43/74/6
f 42/72/6 43/75/6 44/76/6
f 43/74/6 7/59/6 44/77/6
f 44/77/6 7/59/6 45/78/6
f 44/76/6 45/79/6 46/80/6
f 45/78/6 7/59/6 46/81/6
f 46/81/6 7/59/6 47/82/6
f 47/82/6 7/59/6 48/83/6
f 44/76/6 46/80/6 49/84/6
f 46/80/6 47/85/6 49/84/6
f 47/86/6 48/87/6 50/88/6
f 49/84/6 47/85/6 50/89/6
f 48/83/6 7/59/6 51/90/6
f 50/88/6 48/87/6 51/91/6
f 51/90/6 7/59/6 52/92/6
f 42/72/6 44/76/6 53/93/6
f 44/76/6 49/84/6 53/93/6
f 53/93/6 49/84/6 54/94/6
f 49/95/6 50/88/6 55/96/6
f 54/94/6 49/84/6 55/97/6
f 51/91/6 52/98/6 55/96/6
f 50/88/6 51/91/6 55/96/6
f 52/92/6 7/59/6 56/99/6
f 55/96/6 52/98/6 56/100/6
f 56/99/6 7/59/6 57/101/6
f 38/64/6 40/68/6 58/102/6
f 40/68/6 42/72/6 58/102/6
f 42/72/6 53/93/6 58/102/6
f 53/103/6 54/104/6 59/105/6
f 58/102/6 53/93/6 59/106/6
f 57/101/6 7/59/6 60/107/6
f 56/100/6 57/108/6 60/109/6
f 55/96/6 56/100/6 60/109/6
f 60/107/6 7/59/6 61/110/6
f 10/62/6 38/64/6 62/111/6
f 38/64/6 58/102/6 62/111/6
f 58/112/6 59/105/6 63/113/6
f 62/111/6 58/102/6 63/114/6
f 59/105/6 54/104/6 64/115/6
f 63/113/6 59/105/6 64/115/6
f 62/116/6 63/113/6 64/115/6
f 54/117/6 55/118/6 65/119/6
f 64/115/6 54/104/6 65/120/6
f 55/96/6 60/109/6 66/121/6
f 65/119/6 55/118/6 66/122/6
f 60/109/6 61/123/6 66/121/6
f 66/121/6 61/123/6 67/124/6
f 62/116/6 64/115/6 68/125/6
f 64/126/6 65/127/6 69/128/6
f 68/125/6 64/115/6 69/129/6
f 65/127/6 66/130/6 69/128/6
f 66/130/6 67/131/6 69/128/6
f 62/116/6 68/125/6 70/132/6
f 68/133/6 69/128/6 70/134/6
f 69/128/6 67/131/6 71/135/6
f 70/134/6 69/128/6 71/135/6
f 67/124/6 61/123/6 72/136/6
f 71/135/6 67/131/6 72/137/6
f 72/136/6 61/123/6 73/138/6
f 71/135/6 72/137/6 74/139/6
f 72/137/6 73/140/6 74/139/6
f 73/138/6 61/123/6 75/141/6
f 74/139/6 73/140/6 75/142/6
f 70/132/6 71/143/6 76/144/6
f 71/135/6 74/139/6 76/145/6
f 76/145/6 74/139/6 77/146/6
f 77/146/6 74/139/6 78/147/6
f 74/148/6 75/141/6 79/149/6
f 78/147/6 74/139/6 79/150/6
f 77/146/6 78/147/6 80/151/6
f 76/144/6 77/152/6 80/153/6
f 78/154/6 79/149/6 81/155/6
f 80/151/6 78/147/6 81/156/6
f 75/141/6 61/123/6 82/157/6
f 81/155/6 79/149/6 82/157/6
f 79/149/6 75/141/6 82/157/6
f 82/157/6 61/123/6 83/158/6
f 62/116/6 70/132/6 84/159/6
f 80/153/6 81/155/6 84/159/6
f 76/144/6 80/153/6 84/159/6
f 81/155/6 82/157/6 84/159/6
f 70/132/6 76/144/6 84/159/6
f 84/159/6 82/157/6 85/160/6
f 85/160/6 82/157/6 86/161/6
f 86/161/6 82/157/6 87/162/6
f 87/162/6 82/157/6 88/163/6
f 82/164/6 83/165/6 89/166/6
f 88/163/6 82/157/6 89/167/6
f 62/116/6 84/159/6 90/168/6
f 84/169/6 85/170/6 90/171/6
f 90/171/6 85/170/6 91/172/6
f 85/160/6 86/161/6 92/173/6
f 91/172/6 85/170/6 92/174/6
f 92/173/6 86/161/6 93/175/6
f 86/176/6 87/177/6 94/178/6
f 93/175/6 86/161/6 94/179/6
f 94/178/6 87/177/6 95/180/6
f 87/162/6 88/163/6 96/181/6
f 88/182/6 89/166/6 97/183/6
f 96/181/6 88/163/6 97/184/6
f 90/168/6 91/185/6 98/186/6
f 92/174/6 93/187/6 98/188/6
f 91/172/6 92/174/6 98/188/6
f 98/188/6 93/187/6 99/189/6
f 99/189/6 93/187/6 100/190/6
f 94/179/6 95/191/6 101/192/6
f 100/190/6 93/187/6 101/193/6
f 93/175/6 94/179/6 101/192/6
f 95/180/6 87/177/6 102/194/6
f 101/192/6 95/191/6 102/195/6
f 102/194/6 87/177/6 103/196/6
f 103/196/6 87/177/6 104/197/6
f 87/162/6 96/181/6 105/198/6
f 104/197/6 87/177/6 105/199/6
f 99/189/6 100/190/6 106/200/6
f 98/186/6 99/201/6 106/202/6
f 100/203/6 101/192/6 107/204/6
f 106/200/6 100/190/6 107/205/6
f 101/192/6 102/195/6 107/204/6
f 102/195/6 103/206/6 107/204/6
f 103/196/6 104/197/6 108/207/6
f 107/204/6 103/206/6 108/208/6
f 104/209/6 105/198/6 109/210/6
f 108/207/6 104/197/6 109/211/6
f 105/198/6 96/181/6 110/212/6
f 109/210/6 105/198/6 110/212/6
f 96/213/6 97/183/6 111/214/6
f 110/212/6 96/181/6 111/215/6
f 98/186/6 106/202/6 15/216/6
f 106/202/6 107/204/6 15/216/6
f 109/210/6 110/212/6 15/216/6
f 90/168/6 98/186/6 15/216/6
f 107/204/6 108/208/6 15/216/6
f 108/208/6 109/210/6 15/216/6
f 62/116/6 90/168/6 15/216/6
f 110/217/6 111/214/6 112/218/6
f 15/216/6 110/212/6 112/219/6
f 111/214/6 97/183/6 8/220/6
f 112/218/6 111/214/6 8/220/6
f 89/166/6 83/165/6 8/220/6
f 97/183/6 89/166/6 8/220/6
f 1/1/6 113/35/6 17/21/6
f 17/21/6 113/35/6 18/13/6
f 1/1/6 17/21/6 11/24/6
f 18/13/6 113/35/6 16/18/6
f 1/1/6 11/24/6 3/4/6
f 11/24/6 16/18/6 3/4/6
f 3/4/6 16/18/6 19/5/6
f 19/5/6 16/18/6 114/221/6
f 114/221/6 16/18/6 115/222/6
f 115/222/6 16/18/6 116/223/6
f 116/223/6 16/18/6 21/31/6
f 16/18/6 113/35/6 117/36/6
f 21/31/6 16/18/6 117/36/6
f 19/5/6 114/221/6 118/224/6
f 114/225/6 115/226/6 118/227/6
f 115/228/6 116/229/6 119/230/6
f 118/227/6 115/226/6 119/231/6
f 116/223/6 21/31/6 120/232/6
f 119/230/6 116/229/6 120/233/6
f 19/5/6 118/224/6 121/8/6
f 118/234/6 119/230/6 6/235/6
f 121/8/6 118/224/6 6/9/6
f 119/231/6 120/236/6 122/237/6
f 6/235/6 119/230/6 122/238/6
f 120/232/6 21/31/6 23/27/6
f 122/237/6 120/236/6 23/239/6
f 23/27/6 21/31/6 13/32/6
f 6/9/6 122/240/6 24/12/6
f 122/240/6 23/27/6 24/12/6
f 24/12/6 23/27/6 123/28/6
