# Blender v2.78 (sub 0) OBJ File: ''
# www.blender.org
mtllib Dog_bowl.mtl
o Dog_bowl
v -8.000000 -0.000001 5.000000
v -8.000000 -0.000001 7.000000
v -8.000000 6.000001 -4.999999
v -8.000000 0.000001 -7.000000
v -7.000000 5.999999 8.000001
v -7.000000 -0.000001 7.000000
v -7.000000 -0.000001 8.000000
v -7.000000 5.999999 7.000001
v -7.000000 6.000001 -6.999999
v -7.000000 0.000001 -8.000000
v -7.000000 0.000001 -7.000000
v -5.000000 0.000001 -8.000000
v -5.000000 6.000001 -8.999999
v 4.000000 5.999999 8.000001
v 6.000000 5.999999 7.000001
v 6.000000 5.999999 6.000001
v 6.000000 6.000001 -5.999999
v 6.000000 1.000001 -6.000000
v 6.000000 6.000001 -6.999999
v 7.000000 5.999999 6.000001
v 7.000000 0.999999 4.000000
v 7.000000 0.999999 6.000000
v 7.000000 1.000001 -6.000000
v 8.000000 0.999999 4.000000
v 8.000000 6.000000 -3.999999
v -8.000000 0.999999 4.000000
v -8.000000 6.000000 4.000001
v -8.000000 6.000000 -3.999999
v -7.000000 0.999999 6.000000
v -7.000000 6.000000 -3.999999
v -6.000000 1.000001 -7.000000
v -4.000000 0.999999 8.000000
v -4.000000 5.999999 8.000001
v 5.000000 5.999999 9.000001
v 5.000000 5.999999 8.000001
v 7.000000 0.000001 -8.000000
v 7.000000 6.000001 -6.999999
v 8.000000 5.999999 7.000001
v 8.000000 0.000001 -7.000000
v 8.000000 6.000001 -6.999999
v -5.000000 5.999999 9.000001
v -5.000000 -0.000001 8.000000
v 7.000000 -0.000001 8.000000
v 7.000000 5.999999 8.000001
v 8.000000 -0.000001 7.000000
v 7.000000 5.999999 7.000001
v -9.000000 5.999999 5.000001
v 9.000000 -0.000001 5.000000
v 8.000000 5.999999 5.000001
v 8.000000 -0.000001 5.000000
v 8.000000 1.000001 -4.000000
v 7.000000 6.000000 -3.999999
v -6.000000 1.000001 -6.000000
v -6.000000 6.000001 -5.999999
v 7.000000 6.000001 -5.999999
v -4.000000 1.000001 -7.000000
v -6.000000 6.000001 -6.999999
v 4.000000 6.000001 -6.999999
v 4.000000 1.000001 -7.000000
v 4.000000 1.000001 -8.000000
v 4.000000 6.000001 -7.999999
v -6.000000 0.999999 7.000000
v -4.000000 0.999999 7.000000
v 4.000000 0.999999 7.000000
v 6.000000 0.999999 7.000000
v -6.000000 5.999999 6.000001
v -7.000000 0.999999 4.000000
v 8.000000 6.000000 4.000001
v 8.000000 0.000001 -5.000000
v 8.000000 6.000001 -4.999999
v 9.000000 0.000001 -5.000000
v -8.000000 6.000001 -6.999999
v 7.000000 0.000001 -7.000000
v -7.000000 6.000001 -7.999999
v 5.000000 -0.000001 9.000000
v -5.000000 -0.000001 9.000000
v 5.000000 -0.000001 8.000000
v 7.000000 -0.000001 7.000000
v -9.000000 0.000001 -5.000000
v -9.000000 -0.000001 5.000000
v -8.000000 0.000001 -5.000000
v 5.000000 0.000001 -8.000000
v -5.000000 0.000001 -9.000000
v 5.000000 0.000001 -9.000000
v 4.000000 0.999999 8.000000
v -6.000000 0.999999 6.000000
v 6.000000 0.999999 6.000000
v -8.000000 1.000001 -4.000000
v -7.000000 1.000001 -4.000000
v 7.000000 1.000001 -4.000000
v -7.000000 1.000001 -6.000000
v 6.000000 1.000001 -7.000000
v -4.000000 1.000001 -8.000000
v -5.000000 5.999999 8.000001
v -6.000000 5.999999 7.000001
v -4.000000 5.999999 7.000001
v 4.000000 5.999999 7.000001
v -7.000000 5.999999 6.000001
v -8.000000 5.999999 7.000001
v -8.000000 5.999999 5.000001
v -7.000000 6.000000 4.000001
v 9.000000 5.999999 5.000001
v 7.000000 6.000000 4.000001
v -9.000000 6.000001 -4.999999
v 9.000000 6.000001 -4.999999
v -7.000000 6.000001 -5.999999
v -4.000000 6.000001 -6.999999
v -5.000000 6.000001 -7.999999
v -4.000000 6.000001 -7.999999
v 5.000000 6.000001 -7.999999
v 7.000000 6.000001 -7.999999
v 5.000000 6.000001 -8.999999
vt 0.5137 0.5000
vt 0.5137 0.5000
vt 0.5137 0.5000
vt 0.5137 0.5000
vt 0.5137 0.5000
vt 0.5137 0.5000
vt 0.5137 0.5000
vt 0.5137 0.5000
vt 0.5137 0.5000
vt 0.5137 0.5000
vt 0.5137 0.5000
vt 0.5137 0.5000
vt 0.5137 0.5000
vt 0.5137 0.5000
vt 0.5137 0.5000
vt 0.5137 0.5000
vt 0.5137 0.5000
vt 0.5137 0.5000
vt 0.5137 0.5000
vt 0.5137 0.5000
vt 0.5137 0.5000
vt 0.5137 0.5000
vt 0.5137 0.5000
vt 0.5137 0.5000
vt 0.5137 0.5000
vt 0.5137 0.5000
vt 0.5137 0.5000
vt 0.5137 0.5000
vt 0.5137 0.5000
vt 0.5137 0.5000
vt 0.5137 0.5000
vt 0.5137 0.5000
vt 0.5137 0.5000
vt 0.5137 0.5000
vt 0.5137 0.5000
vt 0.5137 0.5000
vt 0.5137 0.5000
vt 0.5137 0.5000
vt 0.5137 0.5000
vt 0.5137 0.5000
vt 0.5137 0.5000
vt 0.5137 0.5000
vt 0.5137 0.5000
vt 0.5137 0.5000
vt 0.5137 0.5000
vt 0.5137 0.5000
vt 0.5137 0.5000
vt 0.5137 0.5000
vt 0.5137 0.5000
vt 0.5137 0.5000
vt 0.5137 0.5000
vt 0.5137 0.5000
vt 0.5137 0.5000
vt 0.5137 0.5000
vt 0.5137 0.5000
vt 0.5137 0.5000
vt 0.5137 0.5000
vt 0.5137 0.5000
vt 0.5137 0.5000
vt 0.5137 0.5000
vt 0.5137 0.5000
vt 0.5137 0.5000
vt 0.5137 0.5000
vt 0.5137 0.5000
vt 0.5137 0.5000
vt 0.5137 0.5000
vt 0.5137 0.5000
vt 0.5137 0.5000
vt 0.5137 0.5000
vt 0.5137 0.5000
vt 0.5137 0.5000
vt 0.5137 0.5000
vt 0.5137 0.5000
vt 0.5137 0.5000
vt 0.5137 0.5000
vt 0.5137 0.5000
vt 0.5137 0.5000
vt 0.5137 0.5000
vt 0.5137 0.5000
vt 0.5137 0.5000
vt 0.5137 0.5000
vt 0.5137 0.5000
vt 0.5137 0.5000
vt 0.5137 0.5000
vt 0.5137 0.5000
vt 0.5137 0.5000
vt 0.5137 0.5000
vt 0.5137 0.5000
vt 0.5137 0.5000
vt 0.5137 0.5000
vt 0.5137 0.5000
vt 0.5137 0.5000
vt 0.5137 0.5000
vt 0.5137 0.5000
vt 0.5137 0.5000
vt 0.5137 0.5000
vt 0.5137 0.5000
vt 0.5137 0.5000
vt 0.5137 0.5000
vt 0.5137 0.5000
vt 0.5137 0.5000
vt 0.5137 0.5000
vt 0.5137 0.5000
vt 0.5137 0.5000
vt 0.5137 0.5000
vt 0.5137 0.5000
vt 0.5137 0.5000
vt 0.5137 0.5000
vt 0.5137 0.5000
vt 0.5137 0.5000
vt 0.5137 0.5000
vt 0.5137 0.5000
vn 0.0000 -0.0000 1.0000
vn 0.0000 1.0000 0.0000
vn 1.0000 0.0000 0.0000
vn 0.0000 -1.0000 -0.0000
vn -1.0000 0.0000 0.0000
vn 0.0000 0.0000 -1.0000
usemtl palette.002
s off
f 61/1/1 109/2/1 93/3/1 60/4/1
f 85/5/2 64/6/2 63/7/2 32/8/2
f 67/9/3 101/10/3 98/11/3 29/12/3
f 84/13/4 82/14/4 12/15/4 83/16/4
f 13/17/5 83/16/5 12/15/5 108/18/5
f 97/19/5 64/6/5 85/5/5 14/20/5
f 72/21/5 4/22/5 81/23/5 3/24/5
f 8/25/5 6/26/5 7/27/5 5/28/5
f 55/29/5 23/30/5 90/31/5 52/32/5
f 37/33/6 40/34/6 39/35/6 73/36/6
f 72/21/6 9/37/6 11/38/6 4/22/6
f 110/39/6 111/40/6 36/41/6 82/14/6
f 104/42/6 3/24/6 81/23/6 79/43/6
f 59/44/2 60/4/2 93/3/2 56/45/2
f 55/29/1 17/46/1 18/47/1 23/30/1
f 104/42/5 79/43/5 80/48/5 47/49/5
f 39/35/3 40/34/3 70/50/3 69/51/3
f 71/52/3 105/53/3 102/54/3 48/55/3
f 54/56/1 106/57/1 91/58/1 53/59/1
f 86/60/3 66/61/3 95/62/3 62/63/3
f 84/13/3 112/64/3 110/39/3 82/14/3
f 78/65/3 46/66/3 44/67/3 43/68/3
f 31/69/3 57/70/3 54/56/3 53/59/3
f 63/7/3 96/71/3 33/72/3 32/8/3
f 30/73/1 28/74/1 88/75/1 89/76/1
f 95/62/6 96/71/6 63/7/6 62/63/6
f 107/77/1 57/70/1 31/69/1 56/45/1
f 10/78/4 73/36/4 69/51/4 11/38/4
f 44/67/1 35/79/1 77/80/1 43/68/1
f 8/25/1 99/81/1 2/82/1 6/26/1
f 74/83/6 108/18/6 12/15/6 10/78/6
f 95/62/2 66/61/2 98/11/2 8/25/2
f 33/72/6 14/20/6 85/5/6 32/8/6
f 88/75/3 28/74/3 27/84/3 26/85/3
f 93/3/3 109/2/3 107/77/3 56/45/3
f 100/86/1 47/49/1 80/48/1 1/87/1
f 100/86/5 1/87/5 2/82/5 99/81/5
f 91/58/3 106/57/3 30/73/3 89/76/3
f 94/88/5 42/89/5 76/90/5 41/91/5
f 36/41/3 111/40/3 37/33/3 73/36/3
f 77/80/4 75/92/4 76/90/4 42/89/4
f 38/93/1 46/66/1 78/65/1 45/94/1
f 97/19/6 15/95/6 65/96/6 64/6/6
f 98/11/6 66/61/6 86/60/6 29/12/6
f 16/97/6 20/98/6 22/99/6 87/100/6
f 27/84/6 101/10/6 67/9/6 26/85/6
f 94/88/1 5/28/1 7/27/1 42/89/1
f 34/101/1 41/91/1 76/90/1 75/92/1
f 102/54/1 49/102/1 50/103/1 48/55/1
f 55/29/2 37/33/2 19/104/2 17/46/2
f 25/105/5 51/106/5 24/107/5 68/108/5
f 61/1/5 60/4/5 59/44/5 58/109/5
f 70/50/6 105/53/6 71/52/6 69/51/6
f 19/104/5 92/110/5 18/47/5 17/46/5
f 16/97/5 87/100/5 65/96/5 15/95/5
f 77/80/3 35/79/3 34/101/3 75/92/3
f 50/103/3 49/102/3 38/93/3 45/94/3
f 6/26/4 42/89/4 7/27/4
f 6/26/4 43/68/4 77/80/4
f 6/26/4 77/80/4 42/89/4
f 87/100/2 67/9/2 86/60/2 65/96/2
f 1/87/4 6/26/4 2/82/4
f 1/87/4 45/94/4 78/65/4
f 4/22/4 69/51/4 48/55/4 81/23/4
f 79/43/4 1/87/4 80/48/4
f 79/43/4 48/55/4 50/103/4
f 81/23/4 48/55/4 79/43/4
f 21/111/2 88/75/2 67/9/2 22/99/2
f 71/52/4 48/55/4 69/51/4
f 11/38/4 69/51/4 4/22/4
f 1/87/4 78/65/4 43/68/4 6/26/4
f 39/35/4 69/51/4 73/36/4
f 12/15/4 73/36/4 10/78/4
f 82/14/4 73/36/4 12/15/4
f 36/41/4 73/36/4 82/14/4
f 25/105/1 52/32/1 90/31/1 51/106/1
f 19/104/1 58/109/1 59/44/1 92/110/1
f 62/63/2 63/7/2 86/60/2
f 64/6/2 65/96/2 86/60/2
f 63/7/2 64/6/2 86/60/2
f 18/47/2 31/69/2 53/59/2 90/31/2
f 29/12/2 86/60/2 67/9/2
f 87/100/2 22/99/2 67/9/2
f 90/31/2 91/58/2 89/76/2 24/107/2
f 26/85/2 67/9/2 88/75/2
f 21/111/2 24/107/2 88/75/2
f 88/75/2 24/107/2 89/76/2
f 90/31/2 24/107/2 51/106/2
f 91/58/2 90/31/2 53/59/2
f 79/43/4 50/103/4 45/94/4 1/87/4
f 18/47/2 90/31/2 23/30/2
f 31/69/2 18/47/2 56/45/2
f 56/45/2 18/47/2 59/44/2
f 59/44/2 18/47/2 92/110/2
f 103/112/6 68/108/6 24/107/6 21/111/6
f 41/91/2 34/101/2 94/88/2
f 94/88/2 34/101/2 33/72/2
f 33/72/2 34/101/2 14/20/2
f 14/20/2 34/101/2 35/79/2
f 5/28/2 94/88/2 8/25/2
f 94/88/2 33/72/2 8/25/2
f 8/25/2 33/72/2 95/62/2
f 95/62/2 33/72/2 96/71/2
f 14/20/2 35/79/2 97/19/2
f 35/79/2 44/67/2 97/19/2
f 97/19/2 44/67/2 15/95/2
f 15/95/2 44/67/2 46/66/2
f 103/112/5 21/111/5 22/99/5 20/98/5
f 99/81/2 8/25/2 98/11/2
f 46/66/2 38/93/2 16/97/2
f 15/95/2 46/66/2 16/97/2
f 16/97/2 38/93/2 20/98/2
f 99/81/2 98/11/2 100/86/2
f 20/98/2 38/93/2 49/102/2
f 47/49/2 100/86/2 27/84/2
f 100/86/2 98/11/2 27/84/2
f 27/84/2 98/11/2 101/10/2
f 49/102/2 102/54/2 103/112/2
f 20/98/2 49/102/2 103/112/2
f 103/112/2 102/54/2 68/108/2
f 47/49/2 27/84/2 28/74/2
f 68/108/2 102/54/2 25/105/2
f 28/74/2 30/73/2 104/42/2
f 47/49/2 28/74/2 104/42/2
f 104/42/2 30/73/2 3/24/2
f 52/32/2 25/105/2 70/50/2
f 25/105/2 102/54/2 70/50/2
f 70/50/2 102/54/2 105/53/2
f 3/24/2 30/73/2 106/57/2
f 52/32/2 70/50/2 55/29/2
f 106/57/2 54/56/2 72/21/2
f 3/24/2 106/57/2 72/21/2
f 72/21/2 54/56/2 9/37/2
f 9/37/2 54/56/2 57/70/2
f 13/17/6 112/64/6 84/13/6 83/16/6
f 55/29/2 70/50/2 37/33/2
f 37/33/2 70/50/2 40/34/2
f 57/70/2 107/77/2 74/83/2
f 9/37/2 57/70/2 74/83/2
f 74/83/2 107/77/2 108/18/2
f 108/18/2 107/77/2 109/2/2
f 58/109/2 19/104/2 61/1/2
f 19/104/2 37/33/2 61/1/2
f 61/1/2 37/33/2 110/39/2
f 110/39/2 37/33/2 111/40/2
f 108/18/2 109/2/2 13/17/2
f 61/1/2 110/39/2 13/17/2
f 109/2/2 61/1/2 13/17/2
f 13/17/2 110/39/2 112/64/2
f 74/83/5 10/78/5 11/38/5 9/37/5
