# Blender v2.78 (sub 0) OBJ File: ''
# www.blender.org
mtllib Cabinet_2.mtl
o Cabinet_2.001
v -30.000000 59.999996 14.000010
v -19.000000 48.999996 15.000008
v -19.000000 47.999996 14.000008
v -19.000000 47.999996 15.000008
v -19.000000 50.999996 14.000009
v -14.000000 48.999996 15.000008
v -14.000000 50.999996 14.000009
v -8.000000 18.999998 15.000003
v -8.000000 17.999998 15.000003
v -8.000000 18.999998 14.000003
v -8.000000 23.999998 15.000004
v -7.000000 17.999998 15.000003
v -7.000000 17.999998 16.000004
v -7.000000 22.999998 15.000004
v 5.000000 18.999998 15.000003
v 5.000000 23.999998 15.000004
v 5.000000 22.999998 15.000004
v 6.000000 17.999998 15.000003
v 6.000000 17.999998 16.000004
v 6.000000 22.999998 15.000004
v 6.000000 23.999998 16.000004
v 13.000000 47.999996 15.000008
v 13.000000 48.999996 16.000008
v 13.000000 49.999996 15.000009
v 13.000000 50.999996 14.000009
v 18.000000 50.999996 15.000009
v -18.000000 47.999996 15.000008
v -18.000000 49.999996 15.000009
v -18.000000 50.999996 15.000009
v -13.000000 47.999996 15.000008
v -6.000000 17.999998 15.000003
v -5.000000 22.999998 15.000004
v -5.000000 23.999998 14.000004
v 7.000000 23.999998 15.000004
v 8.000000 17.999998 15.000003
v 8.000000 18.999998 15.000003
v 8.000000 22.999998 15.000004
v 14.000000 47.999996 15.000008
v 14.000000 47.999996 14.000008
v 14.000000 48.999996 15.000008
v 19.000000 47.999996 15.000008
v 19.000000 47.999996 14.000008
v 19.000000 48.999996 15.000008
v 30.000000 0.000003 -16.000000
v -13.000000 48.999996 16.000008
v -19.000000 49.999996 16.000008
v -13.000000 49.999996 16.000008
v -6.000000 17.999998 16.000004
v -7.000000 23.999998 16.000004
v -6.000000 23.999998 16.000004
v 7.000000 17.999998 16.000004
v 19.000000 49.999996 16.000008
v -19.000000 49.999996 15.000009
v -13.000000 48.999996 15.000008
v -13.000000 50.999996 15.000009
v -7.000000 18.999998 15.000003
v -7.000000 23.999998 15.000004
v -5.000000 17.999998 15.000003
v -6.000000 18.999998 15.000003
v -5.000000 18.999998 15.000003
v -6.000000 22.999998 15.000004
v -5.000000 23.999998 15.000004
v 6.000000 23.999998 15.000004
v 7.000000 17.999998 15.000003
v 13.000000 48.999996 15.000008
v 19.000000 50.999996 15.000009
v -29.000000 0.999998 14.000000
v -29.000000 58.999996 14.000010
v -28.000000 1.999998 14.000000
v -28.000000 38.999996 14.000007
v -28.000000 39.999996 14.000007
v -28.000000 57.999996 14.000010
v -18.000000 50.999996 14.000009
v -13.000000 50.999996 14.000009
v -8.000000 22.999998 14.000004
v -8.000000 23.999998 14.000004
v -5.000000 17.999998 14.000003
v -5.000000 18.999998 14.000003
v -1.000000 1.999998 14.000000
v -1.000000 38.999996 14.000007
v 1.000000 1.999998 14.000000
v 1.000000 38.999996 14.000007
v 5.000000 17.999998 14.000003
v 5.000000 18.999998 14.000003
v 5.000000 22.999998 14.000004
v 8.000000 22.999998 14.000004
v 8.000000 23.999998 14.000004
v 28.000000 1.999998 14.000000
v 28.000000 38.999996 14.000007
v 28.000000 39.999996 14.000007
v 28.000000 57.999996 14.000010
v 29.000000 0.999998 14.000000
v 29.000000 58.999996 14.000010
v 30.000000 59.999996 14.000010
v -14.000000 49.999996 15.000009
v 6.000000 18.999998 15.000003
v 7.000000 18.999998 15.000003
v 7.000000 22.999998 15.000004
v 18.000000 49.999996 15.000009
v -30.000000 0.000003 -16.000000
v -30.000000 60.000004 -15.999990
v 30.000000 60.000004 -15.999990
v 30.000000 -0.000002 14.000000
v -30.000000 -0.000002 14.000000
v -8.000000 17.999998 14.000003
v 5.000000 17.999998 15.000003
v 8.000000 17.999998 14.000003
v -8.000000 22.999998 15.000004
v -5.000000 22.999998 14.000004
v -18.000000 47.999996 14.000008
v -14.000000 47.999996 14.000008
v -14.000000 47.999996 15.000008
v -13.000000 47.999996 14.000008
v 13.000000 47.999996 14.000008
v 18.000000 47.999996 14.000008
v 18.000000 47.999996 15.000008
v -19.000000 48.999996 16.000008
v -18.000000 48.999996 15.000008
v 19.000000 48.999996 16.000008
v 18.000000 48.999996 15.000008
v 8.000000 18.999998 14.000003
v -6.000000 23.999998 15.000004
v 7.000000 23.999998 16.000004
v 8.000000 23.999998 15.000004
v 5.000000 23.999998 14.000004
v -13.000000 49.999996 15.000009
v 13.000000 49.999996 16.000008
v 14.000000 49.999996 15.000009
v 19.000000 49.999996 15.000009
v -19.000000 50.999996 15.000009
v -14.000000 50.999996 15.000009
v 13.000000 50.999996 15.000009
v 14.000000 50.999996 15.000009
v 14.000000 50.999996 14.000009
v 18.000000 50.999996 14.000009
v 19.000000 50.999996 14.000009
vt 0.5371 0.5000
vt 0.5371 0.5000
vt 0.5371 0.5000
vt 0.5371 0.5000
vt 0.9824 0.5000
vt 0.9824 0.5000
vt 0.9824 0.5000
vt 0.9824 0.5000
vt 0.9824 0.5000
vt 0.9824 0.5000
vt 0.9824 0.5000
vt 0.9824 0.5000
vt 0.9824 0.5000
vt 0.9824 0.5000
vt 0.9824 0.5000
vt 0.9824 0.5000
vt 0.9824 0.5000
vt 0.9824 0.5000
vt 0.9824 0.5000
vt 0.9824 0.5000
vt 0.9824 0.5000
vt 0.9824 0.5000
vt 0.9824 0.5000
vt 0.9824 0.5000
vt 0.9824 0.5000
vt 0.9824 0.5000
vt 0.9824 0.5000
vt 0.9824 0.5000
vt 0.9824 0.5000
vt 0.9824 0.5000
vt 0.9824 0.5000
vt 0.9824 0.5000
vt 0.9824 0.5000
vt 0.9824 0.5000
vt 0.9824 0.5000
vt 0.9824 0.5000
vt 0.9824 0.5000
vt 0.9824 0.5000
vt 0.9824 0.5000
vt 0.9824 0.5000
vt 0.9824 0.5000
vt 0.9824 0.5000
vt 0.9824 0.5000
vt 0.9824 0.5000
vt 0.9824 0.5000
vt 0.9824 0.5000
vt 0.9824 0.5000
vt 0.9824 0.5000
vt 0.9824 0.5000
vt 0.9824 0.5000
vt 0.9824 0.5000
vt 0.9824 0.5000
vt 0.9824 0.5000
vt 0.9824 0.5000
vt 0.9824 0.5000
vt 0.9824 0.5000
vt 0.9824 0.5000
vt 0.9824 0.5000
vt 0.9824 0.5000
vt 0.9824 0.5000
vt 0.9824 0.5000
vt 0.9824 0.5000
vt 0.9824 0.5000
vt 0.9824 0.5000
vt 0.9824 0.5000
vt 0.9824 0.5000
vt 0.9824 0.5000
vt 0.9824 0.5000
vt 0.9824 0.5000
vt 0.9824 0.5000
vt 0.9824 0.5000
vt 0.9824 0.5000
vt 0.9824 0.5000
vt 0.9824 0.5000
vt 0.9824 0.5000
vt 0.9824 0.5000
vt 0.9824 0.5000
vt 0.9824 0.5000
vt 0.9824 0.5000
vt 0.9824 0.5000
vt 0.9824 0.5000
vt 0.9824 0.5000
vt 0.9824 0.5000
vt 0.9824 0.5000
vt 0.9824 0.5000
vt 0.9824 0.5000
vt 0.9824 0.5000
vt 0.9824 0.5000
vt 0.9824 0.5000
vt 0.9824 0.5000
vt 0.9824 0.5000
vt 0.9824 0.5000
vt 0.9824 0.5000
vt 0.9824 0.5000
vt 0.9824 0.5000
vt 0.9824 0.5000
vt 0.9824 0.5000
vt 0.9824 0.5000
vt 0.9824 0.5000
vt 0.9824 0.5000
vt 0.9824 0.5000
vt 0.9824 0.5000
vt 0.9824 0.5000
vt 0.9824 0.5000
vt 0.9824 0.5000
vt 0.9824 0.5000
vt 0.9824 0.5000
vt 0.9824 0.5000
vt 0.9824 0.5000
vt 0.9824 0.5000
vt 0.9824 0.5000
vt 0.9824 0.5000
vt 0.9824 0.5000
vt 0.9824 0.5000
vt 0.9824 0.5000
vt 0.9824 0.5000
vt 0.5371 0.5000
vt 0.5371 0.5000
vt 0.5371 0.5000
vt 0.5371 0.5000
vt 0.5371 0.5000
vt 0.7012 0.5000
vt 0.7012 0.5000
vt 0.7012 0.5000
vt 0.7012 0.5000
vt 0.7012 0.5000
vt 0.7012 0.5000
vt 0.5371 0.5000
vt 0.5371 0.5000
vt 0.5371 0.5000
vt 0.5371 0.5000
vt 0.5371 0.5000
vt 0.5371 0.5000
vt 0.5371 0.5000
vt 0.5371 0.5000
vt 0.5371 0.5000
vt 0.5371 0.5000
vt 0.5371 0.5000
vt 0.5371 0.5000
vt 0.5371 0.5000
vt 0.5371 0.5000
vt 0.5371 0.5000
vt 0.5371 0.5000
vt 0.5371 0.5000
vt 0.5371 0.5000
vt 0.5371 0.5000
vt 0.5371 0.5000
vt 0.7012 0.5000
vt 0.5371 0.5000
vt 0.5371 0.5000
vt 0.7012 0.5000
vt 0.7012 0.5000
vt 0.7012 0.5000
vt 0.5371 0.5000
vt 0.5371 0.5000
vt 0.5371 0.5000
vt 0.5371 0.5000
vt 0.5371 0.5000
vt 0.5371 0.5000
vt 0.5371 0.5000
vt 0.5371 0.5000
vt 0.5371 0.5000
vt 0.5371 0.5000
vt 0.5371 0.5000
vt 0.5371 0.5000
vt 0.5371 0.5000
vt 0.5371 0.5000
vt 0.5371 0.5000
vt 0.5371 0.5000
vt 0.5371 0.5000
vt 0.5371 0.5000
vt 0.7012 0.5000
vt 0.5371 0.5000
vt 0.5371 0.5000
vt 0.7012 0.5000
vt 0.5371 0.5000
vt 0.7012 0.5000
vt 0.5371 0.5000
vt 0.7012 0.5000
vt 0.5371 0.5000
vt 0.7012 0.5000
vt 0.7012 0.5000
vt 0.5371 0.5000
vt 0.5371 0.5000
vn 0.0000 0.0000 -1.0000
vn -1.0000 0.0000 0.0000
vn 1.0000 0.0000 0.0000
vn 0.0000 -1.0000 -0.0000
vn 0.0000 0.0000 1.0000
vn 0.0000 1.0000 0.0000
usemtl palette.005
s off
f 101/1/1 102/2/1 44/3/1 100/4/1
f 2/5/2 3/6/2 4/7/2
f 46/8/2 2/5/2 117/9/2
f 53/10/2 3/6/2 2/5/2
f 53/10/2 2/5/2 46/8/2
f 130/11/2 3/6/2 53/10/2
f 5/12/2 3/6/2 130/11/2
f 6/13/2 111/14/2 112/15/2
f 95/16/2 111/14/2 6/13/2
f 131/17/2 111/14/2 95/16/2
f 7/18/2 111/14/2 131/17/2
f 8/19/2 105/20/2 9/21/2
f 10/22/2 105/20/2 8/19/2
f 11/23/2 75/24/2 108/25/2
f 76/26/2 75/24/2 11/23/2
f 56/27/2 12/28/2 13/29/2
f 14/30/2 56/27/2 13/29/2
f 49/31/2 14/30/2 13/29/2
f 57/32/2 14/30/2 49/31/2
f 15/33/2 83/34/2 106/35/2
f 84/36/2 83/34/2 15/33/2
f 16/37/2 85/38/2 17/39/2
f 125/40/2 85/38/2 16/37/2
f 96/41/2 18/42/2 19/43/2
f 20/44/2 96/41/2 19/43/2
f 21/45/2 20/44/2 19/43/2
f 63/46/2 20/44/2 21/45/2
f 65/47/2 114/48/2 22/49/2
f 127/50/2 65/47/2 23/51/2
f 24/52/2 114/48/2 65/47/2
f 24/52/2 65/47/2 127/50/2
f 132/53/2 114/48/2 24/52/2
f 25/54/2 114/48/2 132/53/2
f 120/55/2 115/56/2 116/57/2
f 99/58/2 115/56/2 120/55/2
f 26/59/2 115/56/2 99/58/2
f 135/60/2 115/56/2 26/59/2
f 27/61/3 110/62/3 118/63/3
f 118/63/3 110/62/3 28/64/3
f 28/64/3 110/62/3 29/65/3
f 29/65/3 110/62/3 73/66/3
f 30/67/3 113/68/3 54/69/3
f 45/70/3 54/69/3 47/71/3
f 54/69/3 113/68/3 126/72/3
f 47/71/3 54/69/3 126/72/3
f 126/72/3 113/68/3 55/73/3
f 55/73/3 113/68/3 74/74/3
f 48/75/3 31/76/3 59/77/3
f 48/75/3 59/77/3 61/78/3
f 48/75/3 61/78/3 50/79/3
f 50/79/3 61/78/3 122/80/3
f 58/81/3 77/82/3 60/83/3
f 60/83/3 77/82/3 78/84/3
f 32/85/3 109/86/3 62/87/3
f 62/87/3 109/86/3 33/88/3
f 51/89/3 64/90/3 97/91/3
f 51/89/3 97/91/3 98/92/3
f 51/89/3 98/92/3 123/93/3
f 123/93/3 98/92/3 34/94/3
f 35/95/3 107/96/3 36/97/3
f 36/97/3 107/96/3 121/98/3
f 37/99/3 86/100/3 124/101/3
f 124/101/3 86/100/3 87/102/3
f 38/103/3 39/104/3 40/105/3
f 40/105/3 39/104/3 128/106/3
f 128/106/3 39/104/3 133/107/3
f 133/107/3 39/104/3 134/108/3
f 41/109/3 42/110/3 43/111/3
f 119/112/3 43/111/3 52/113/3
f 43/111/3 42/110/3 129/114/3
f 52/113/3 43/111/3 129/114/3
f 129/114/3 42/110/3 66/115/3
f 66/115/3 42/110/3 136/116/3
f 44/3/4 103/117/4 104/118/4 100/4/4
f 45/70/5 46/8/5 117/9/5
f 47/71/5 46/8/5 45/70/5
f 48/75/5 49/31/5 13/29/5
f 50/79/5 49/31/5 48/75/5
f 51/89/5 21/45/5 19/43/5
f 123/93/5 21/45/5 51/89/5
f 119/112/5 127/50/5 23/51/5
f 52/113/5 127/50/5 119/112/5
f 27/61/5 2/5/5 4/7/5
f 118/63/5 2/5/5 27/61/5
f 28/64/5 130/11/5 53/10/5
f 29/65/5 130/11/5 28/64/5
f 30/67/5 6/13/5 112/15/5
f 54/69/5 6/13/5 30/67/5
f 126/72/5 131/17/5 95/16/5
f 55/73/5 131/17/5 126/72/5
f 12/28/5 8/19/5 9/21/5
f 56/27/5 8/19/5 12/28/5
f 14/30/5 11/23/5 108/25/5
f 57/32/5 11/23/5 14/30/5
f 58/81/5 59/77/5 31/76/5
f 60/83/5 59/77/5 58/81/5
f 32/85/5 122/80/5 61/78/5
f 62/87/5 122/80/5 32/85/5
f 18/42/5 15/33/5 106/35/5
f 96/41/5 15/33/5 18/42/5
f 20/44/5 16/37/5 17/39/5
f 63/46/5 16/37/5 20/44/5
f 35/95/5 97/91/5 64/90/5
f 36/97/5 97/91/5 35/95/5
f 37/99/5 34/94/5 98/92/5
f 124/101/5 34/94/5 37/99/5
f 38/103/5 65/47/5 22/49/5
f 40/105/5 65/47/5 38/103/5
f 128/106/5 132/53/5 24/52/5
f 133/107/5 132/53/5 128/106/5
f 41/109/5 120/55/5 116/57/5
f 43/111/5 120/55/5 41/109/5
f 129/114/5 26/59/5 99/58/5
f 66/115/5 26/59/5 129/114/5
f 67/119/5 1/120/5 104/118/5
f 68/121/5 1/120/5 67/119/5
f 69/122/5 68/123/5 67/124/5
f 70/125/5 68/123/5 69/122/5
f 71/126/5 68/123/5 70/125/5
f 72/127/5 68/123/5 71/126/5
f 3/128/5 72/129/5 71/130/5
f 5/131/5 72/129/5 3/128/5
f 110/132/5 3/128/5 71/130/5
f 73/133/5 72/129/5 5/131/5
f 111/134/5 110/132/5 71/130/5
f 111/134/5 73/133/5 110/132/5
f 7/135/5 72/129/5 73/133/5
f 7/135/5 73/133/5 111/134/5
f 113/136/5 111/134/5 71/130/5
f 74/137/5 72/129/5 7/135/5
f 105/138/5 70/139/5 69/140/5
f 10/141/5 70/139/5 105/138/5
f 75/142/5 70/139/5 10/141/5
f 76/143/5 70/139/5 75/142/5
f 77/144/5 105/138/5 69/140/5
f 78/145/5 75/142/5 10/141/5
f 109/146/5 75/142/5 78/145/5
f 33/147/5 70/139/5 76/143/5
f 79/148/5 69/122/5 67/124/5
f 79/149/5 33/147/5 109/146/5
f 79/149/5 109/146/5 78/145/5
f 79/149/5 77/144/5 69/140/5
f 79/149/5 78/145/5 77/144/5
f 80/150/5 70/139/5 33/147/5
f 80/150/5 33/147/5 79/149/5
f 80/151/5 71/126/5 70/125/5
f 81/152/5 79/148/5 67/124/5
f 81/152/5 80/151/5 79/148/5
f 82/153/5 71/126/5 80/151/5
f 82/153/5 80/151/5 81/152/5
f 83/154/5 82/155/5 81/156/5
f 84/157/5 82/155/5 83/154/5
f 85/158/5 82/155/5 84/157/5
f 125/159/5 82/155/5 85/158/5
f 107/160/5 83/154/5 81/156/5
f 121/161/5 85/158/5 84/157/5
f 86/162/5 85/158/5 121/161/5
f 87/163/5 82/155/5 125/159/5
f 114/164/5 74/137/5 113/136/5
f 114/164/5 113/136/5 71/130/5
f 25/165/5 72/129/5 74/137/5
f 25/165/5 74/137/5 114/164/5
f 39/166/5 114/164/5 71/130/5
f 134/167/5 72/129/5 25/165/5
f 115/168/5 39/166/5 71/130/5
f 115/168/5 134/167/5 39/166/5
f 135/169/5 72/129/5 134/167/5
f 135/169/5 134/167/5 115/168/5
f 42/170/5 115/168/5 71/130/5
f 136/171/5 72/129/5 135/169/5
f 88/172/5 81/152/5 67/124/5
f 88/173/5 87/163/5 86/162/5
f 88/173/5 86/162/5 121/161/5
f 88/173/5 107/160/5 81/156/5
f 88/173/5 121/161/5 107/160/5
f 89/174/5 82/155/5 87/163/5
f 89/174/5 87/163/5 88/173/5
f 89/175/5 71/126/5 82/153/5
f 90/176/5 136/171/5 42/170/5
f 90/177/5 71/126/5 89/175/5
f 90/176/5 42/170/5 71/130/5
f 91/178/5 72/129/5 136/171/5
f 91/178/5 136/171/5 90/176/5
f 91/179/5 68/123/5 72/127/5
f 92/180/5 67/119/5 104/118/5
f 92/181/5 89/175/5 88/172/5
f 92/181/5 91/179/5 90/177/5
f 92/181/5 90/177/5 89/175/5
f 92/181/5 88/172/5 67/124/5
f 93/182/5 68/123/5 91/179/5
f 93/182/5 91/179/5 92/181/5
f 93/183/5 1/120/5 68/121/5
f 103/117/5 92/180/5 104/118/5
f 103/117/5 93/183/5 92/180/5
f 94/184/5 1/120/5 93/183/5
f 94/184/5 93/183/5 103/117/5
f 118/63/1 28/64/1 6/13/1
f 6/13/1 28/64/1 95/16/1
f 56/27/1 14/30/1 59/77/1
f 59/77/1 14/30/1 61/78/1
f 96/41/1 20/44/1 97/91/1
f 97/91/1 20/44/1 98/92/1
f 40/105/1 128/106/1 120/55/1
f 120/55/1 128/106/1 99/58/1
f 94/184/6 102/2/6 101/1/6 1/120/6
f 12/28/4 48/75/4 13/29/4
f 31/76/4 48/75/4 12/28/4
f 18/42/4 51/89/4 19/43/4
f 64/90/4 51/89/4 18/42/4
f 105/20/4 58/81/4 31/76/4
f 105/20/4 12/28/4 9/21/4
f 105/20/4 31/76/4 12/28/4
f 77/82/4 58/81/4 105/20/4
f 83/34/4 35/95/4 64/90/4
f 83/34/4 64/90/4 18/42/4
f 83/34/4 18/42/4 106/35/4
f 107/96/4 35/95/4 83/34/4
f 75/24/4 14/30/4 108/25/4
f 75/24/4 61/78/4 14/30/4
f 75/24/4 32/85/4 61/78/4
f 109/86/4 32/85/4 75/24/4
f 85/38/4 37/99/4 98/92/4
f 85/38/4 98/92/4 20/44/4
f 85/38/4 20/44/4 17/39/4
f 86/100/4 37/99/4 85/38/4
f 3/6/4 27/61/4 4/7/4
f 110/62/4 27/61/4 3/6/4
f 111/14/4 30/67/4 112/15/4
f 113/68/4 30/67/4 111/14/4
f 114/48/4 38/103/4 22/49/4
f 39/104/4 38/103/4 114/48/4
f 115/56/4 41/109/4 116/57/4
f 42/110/4 41/109/4 115/56/4
f 2/5/4 45/70/4 117/9/4
f 118/63/4 45/70/4 2/5/4
f 6/13/4 45/70/4 118/63/4
f 54/69/4 45/70/4 6/13/4
f 65/47/4 119/112/4 23/51/4
f 40/105/4 119/112/4 65/47/4
f 120/55/4 119/112/4 40/105/4
f 43/111/4 119/112/4 120/55/4
f 8/19/6 56/27/6 10/22/6
f 56/27/6 59/77/6 10/22/6
f 59/77/6 60/83/6 10/22/6
f 10/22/6 60/83/6 78/84/6
f 97/91/6 36/97/6 84/36/6
f 96/41/6 97/91/6 84/36/6
f 15/33/6 96/41/6 84/36/6
f 84/36/6 36/97/6 121/98/6
f 49/31/6 50/79/6 57/32/6
f 57/32/6 50/79/6 122/80/6
f 21/45/6 123/93/6 63/46/6
f 63/46/6 123/93/6 34/94/6
f 122/80/6 62/87/6 76/26/6
f 11/23/6 57/32/6 76/26/6
f 57/32/6 122/80/6 76/26/6
f 76/26/6 62/87/6 33/88/6
f 34/94/6 124/101/6 125/40/6
f 63/46/6 34/94/6 125/40/6
f 16/37/6 63/46/6 125/40/6
f 125/40/6 124/101/6 87/102/6
f 46/8/6 47/71/6 53/10/6
f 53/10/6 47/71/6 28/64/6
f 28/64/6 47/71/6 95/16/6
f 95/16/6 47/71/6 126/72/6
f 127/50/6 52/113/6 24/52/6
f 24/52/6 52/113/6 128/106/6
f 128/106/6 52/113/6 99/58/6
f 99/58/6 52/113/6 129/114/6
f 130/11/6 29/65/6 5/12/6
f 5/12/6 29/65/6 73/66/6
f 131/17/6 55/73/6 7/18/6
f 7/18/6 55/73/6 74/74/6
f 132/53/6 133/107/6 25/54/6
f 25/54/6 133/107/6 134/108/6
f 26/59/6 66/115/6 135/60/6
f 135/60/6 66/115/6 136/116/6
f 44/3/3 102/2/3 94/184/3 103/117/3
f 101/1/2 100/4/2 104/118/2 1/120/2
